<svg width="50" height="50" viewBox="0 0 50 50" fill="none" xmlns="http://www.w3.org/2000/svg">
    <circle cx="25" cy="25" r="25" fill="url(#paint0_linear)" />
    <path
        d="M30 16.5C30 16.3674 29.9473 16.2402 29.8536 16.1464C29.7598 16.0527 29.6326 16 29.5 16H27C25.7411 15.9373 24.5086 16.3754 23.5717 17.2186C22.6348 18.0618 22.0698 19.2415 22 20.5V23.2H19.5C19.3674 23.2 19.2402 23.2527 19.1464 23.3464C19.0527 23.4402 19 23.5674 19 23.7V26.3C19 26.4326 19.0527 26.5598 19.1464 26.6535C19.2402 26.7473 19.3674 26.8 19.5 26.8H22V33.5C22 33.6326 22.0527 33.7598 22.1464 33.8535C22.2402 33.9473 22.3674 34 22.5 34H25.5C25.6326 34 25.7598 33.9473 25.8536 33.8535C25.9473 33.7598 26 33.6326 26 33.5V26.8H28.62C28.7312 26.8016 28.8397 26.7661 28.9285 26.6991C29.0172 26.6321 29.0811 26.5374 29.11 26.43L29.83 23.83C29.8499 23.7561 29.8526 23.6787 29.8378 23.6036C29.8231 23.5285 29.7913 23.4578 29.7449 23.397C29.6985 23.3361 29.6388 23.2867 29.5704 23.2526C29.5019 23.2184 29.4265 23.2004 29.35 23.2H26V20.5C26.0249 20.2525 26.1411 20.0231 26.326 19.8567C26.5109 19.6903 26.7512 19.5987 27 19.6H29.5C29.6326 19.6 29.7598 19.5473 29.8536 19.4535C29.9473 19.3598 30 19.2326 30 19.1V16.5Z"
        fill="white" />
    <defs>
        <linearGradient id="paint0_linear" x1="25" y1="0" x2="25" y2="50" gradientUnits="userSpaceOnUse">
            <stop stop-color="#2596FF" />
            <stop offset="1" stop-color="#0054E0" />
        </linearGradient>
    </defs>
</svg>