<svg width="81" height="154" viewBox="0 0 81 154" fill="none" xmlns="http://www.w3.org/2000/svg">
    <path
        d="M30.8702 75.9832C30.8702 75.9832 46.5538 45.49 64.5854 47.619C82.617 49.7479 77.2828 101.033 77.2828 101.033H70.2131C70.2131 101.033 68.6818 63.401 62.5181 63.4902C56.3544 63.5795 35.7578 92.3644 35.7578 92.3644C35.7578 92.3644 62.5946 90.0825 66.1933 108.35C70.5704 130.557 55.257 153.478 55.257 153.478L46.6049 153.147C46.6049 153.147 63.1051 114.38 53.8022 108.707C39.4841 99.975 11.9071 115.668 0.970703 95.0797L30.8702 75.9832Z"
        fill="#2657CE" />
    <path
        d="M10.7716 35.2916C10.7716 35.2916 30.3218 42.5962 40.3138 38.4148C50.3058 34.2335 61.574 13.569 67.9546 13.3268C74.3352 13.0846 74.5777 10.8154 74.5777 10.8154C74.5777 10.8154 74.08 16.5138 69.9326 16.7305C65.7852 16.96 60.8466 40.6585 44.8696 46.9942C28.8925 53.33 12.2647 48.2308 12.2647 48.2308C12.2647 48.2308 8.53838 37.9304 10.7716 35.2916Z"
        fill="#FFD2B2" />
    <path
        d="M4.83731 6.17515C5.00321 5.69073 10.8351 -3.14363 20.2018 2.64396C24.145 5.09158 24.2088 9.73184 29.0581 10.9302C33.9074 12.1285 40.9771 7.4627 43.491 15.4939C46.005 23.5252 43.1337 25.7178 47.4853 26.6102C51.8368 27.5153 55.142 26.9671 54.0828 33.1499C52.5643 42.0353 38.9353 42.2902 37.2636 37.242C33.0396 24.4685 25.8423 39.5876 22.1926 28.2292C20.355 22.4926 -3.92965 31.3142 4.83731 6.17515Z"
        fill="#0D1333" />
    <path
        d="M4.05895 13.3778C4.05895 13.3778 1.55777 24.5323 7.63211 26.2277C13.7064 27.9232 12.5962 21.4982 12.3537 22.7093C12.1113 23.9204 10.5672 33.9148 10.5672 33.9148C10.5672 33.9148 13.6426 37.8284 19.4362 34.4375C20.355 33.902 16.9606 18.2985 16.2587 10.3692C15.9652 6.92727 6.13902 6.26437 4.05895 13.3778Z"
        fill="#FFD2B2" />
    <path
        d="M14.3837 47.5169C14.3837 47.5169 32.9768 57.0014 43.3772 53.9929C53.7776 50.9844 67.3428 31.7349 73.6979 32.2321C80.0657 32.7165 80.5634 30.4856 80.5634 30.4856C80.5634 30.4856 79.4149 36.082 75.2675 35.8398C71.1201 35.5975 63.5017 58.5694 46.8993 63.044C30.3097 67.5185 14.3582 60.5454 14.3582 60.5454C14.3582 60.5454 11.8698 49.8881 14.3837 47.5169Z"
        fill="#FFD2B2" />
</svg>