<svg width="192" height="299" viewBox="0 0 192 299" fill="none" xmlns="http://www.w3.org/2000/svg">
    <path
        d="M149.571 63.9119L131.986 52.222C126.971 48.882 125.593 42.0491 128.936 37.0391L149.839 5.66629C153.183 0.656328 160.023 -0.720454 165.038 2.61952L182.623 14.3094C187.638 17.6494 189.016 24.4823 185.673 29.4923L164.77 60.8651C161.426 65.8751 154.586 67.2391 149.571 63.9119Z"
        fill="#7696E3" />
    <path
        d="M79.3845 177.344L55.4699 161.447C52.1903 159.267 51.297 154.805 53.4792 151.529L78.5933 113.833C80.7754 110.557 85.2419 109.664 88.5215 111.844L112.436 127.741C115.716 129.921 116.609 134.383 114.427 137.659L89.3127 175.355C87.1306 178.631 82.6641 179.523 79.3845 177.344Z"
        fill="#1C46AE" />
    <path
        d="M152.289 282.999H81.286C69.6095 282.999 60.1406 292.458 60.1406 304.122H173.435C173.435 292.458 163.966 282.999 152.289 282.999Z"
        fill="#2657CE" />
    <path
        d="M112.258 257.299C81.9756 257.299 54.756 240.471 41.2163 213.395C38.7024 208.359 40.7441 202.227 45.7848 199.716C50.8255 197.192 56.9637 199.244 59.4776 204.28C69.5335 224.396 89.7473 236.902 112.245 236.902C144.748 236.902 171.189 210.488 171.189 178.019C171.189 145.55 144.748 119.136 112.245 119.136C106.605 119.136 102.036 114.572 102.036 108.938C102.036 103.303 106.605 98.7393 112.245 98.7393C156.004 98.7393 191.607 134.306 191.607 178.019C191.62 221.732 156.016 257.299 112.258 257.299Z"
        fill="#1C46AE" />
    <path d="M109 201H0V225H109V201Z" fill="#2657CE" />
    <path
        d="M92.9227 168.904L56.8212 144.9C53.8223 142.898 52.9928 138.819 54.9963 135.81L133.58 17.866C135.583 14.8703 139.667 14.0416 142.679 16.0431L178.78 40.0475C181.779 42.049 182.609 46.1283 180.605 49.1369L102.021 167.081C100.018 170.077 95.9216 170.893 92.9227 168.904Z"
        fill="#2657CE" />
    <path
        d="M132.675 128.378C142.881 128.378 151.154 120.114 151.154 109.919C151.154 99.7246 142.881 91.4602 132.675 91.4602C122.47 91.4602 114.197 99.7246 114.197 109.919C114.197 120.114 122.47 128.378 132.675 128.378Z"
        fill="#7696E3" />
    <path
        d="M132.675 118.473C137.777 118.473 141.914 114.341 141.914 109.244C141.914 104.146 137.777 100.014 132.675 100.014C127.572 100.014 123.436 104.146 123.436 109.244C123.436 114.341 127.572 118.473 132.675 118.473Z"
        fill="#D54A41" />
</svg>