<svg width="195" height="285" viewBox="0 0 195 285" fill="none" xmlns="http://www.w3.org/2000/svg">
    <path
        d="M133.912 151.437H113.877C110.444 151.437 107.637 154.242 107.637 157.671C107.637 160.322 109.321 162.591 111.656 163.484V247.812C111.656 254.556 117.131 260.024 123.882 260.024C130.632 260.024 136.107 254.556 136.107 247.812V163.484C138.455 162.591 140.127 160.322 140.127 157.671C140.152 154.242 137.345 151.437 133.912 151.437Z"
        fill="#FFFAEF" />
    <path
        d="M123.894 255.869C118.904 255.869 114.82 251.789 114.82 246.805V206.266C114.82 201.282 118.904 197.202 123.894 197.202C128.883 197.202 132.967 201.282 132.967 206.266V246.805C132.98 251.789 128.896 255.869 123.894 255.869Z"
        fill="#F05757" />
    <path d="M132.967 175.021H114.82V205.731H132.967V175.021Z" fill="#F05757" />
    <path
        d="M170.754 151.437H150.719C147.286 151.437 144.479 154.242 144.479 157.671C144.479 160.322 146.163 162.591 148.498 163.484V247.812C148.498 254.556 153.973 260.024 160.724 260.024C167.474 260.024 172.949 254.556 172.949 247.812V163.484C175.297 162.591 176.969 160.322 176.969 157.671C176.994 154.242 174.187 151.437 170.754 151.437Z"
        fill="#FFFAEF" />
    <path
        d="M160.735 255.869C155.746 255.869 151.662 251.789 151.662 246.805V232.756C151.662 227.772 155.746 223.693 160.735 223.693C165.725 223.693 169.809 227.772 169.809 232.756V246.805C169.809 251.789 165.725 255.869 160.735 255.869Z"
        fill="#2657CE" />
    <path d="M169.809 213.265H151.662V243.975H169.809V213.265Z" fill="#2657CE" />
    <path
        d="M207.965 151.437H187.93C184.497 151.437 181.689 154.242 181.689 157.671C181.689 160.322 183.374 162.591 185.709 163.484V247.812C185.709 254.556 191.184 260.024 197.935 260.024C204.685 260.024 210.16 254.556 210.16 247.812V163.484C212.508 162.591 214.18 160.322 214.18 157.671C214.205 154.242 211.398 151.437 207.965 151.437Z"
        fill="#FFFAEF" />
    <path
        d="M197.948 255.869C192.959 255.869 188.875 251.789 188.875 246.805V232.756C188.875 227.772 192.959 223.693 197.948 223.693C202.938 223.693 207.021 227.772 207.021 232.756V246.805C207.034 251.789 202.951 255.869 197.948 255.869Z"
        fill="#FAB217" />
    <path d="M207.021 179.763H188.875V243.975H207.021V179.763Z" fill="#FAB217" />
    <path d="M100.554 157.9H76.9453V289.204H100.554V157.9Z" fill="#2657CE" />
    <path d="M242.609 210.626L242.609 187.042L87.8796 187.042L87.8796 210.626L242.609 210.626Z" fill="#2657CE" />
    <path
        d="M100.018 276.316H77.4819C73.7684 276.316 70.7695 282.499 70.7695 290.122H106.731C106.731 282.499 103.732 276.316 100.018 276.316Z"
        fill="#605575" />
    <path
        d="M79.3845 163.344L55.4699 147.447C52.1903 145.267 51.297 140.805 53.4792 137.529L78.5933 99.8331C80.7754 96.5568 85.2419 95.6645 88.5215 97.8444L112.436 113.741C115.716 115.921 116.609 120.383 114.427 123.659L89.3127 161.355C87.1306 164.631 82.6641 165.523 79.3845 163.344Z"
        fill="#1C46AE" />
    <path
        d="M152.289 268.999H81.286C69.6095 268.999 60.1406 278.458 60.1406 290.122H173.435C173.435 278.458 163.966 268.999 152.289 268.999Z"
        fill="#2657CE" />
    <path
        d="M112.258 243.299C81.9756 243.299 54.756 226.471 41.2163 199.395C38.7024 194.359 40.7441 188.227 45.7848 185.716C50.8255 183.192 56.9637 185.244 59.4776 190.28C69.5335 210.396 89.7473 222.902 112.245 222.902C144.748 222.902 171.189 196.488 171.189 164.019C171.189 131.55 144.748 105.136 112.245 105.136C106.605 105.136 102.036 100.572 102.036 94.9377C102.036 89.303 106.605 84.7393 112.245 84.7393C156.004 84.7393 191.607 120.306 191.607 164.019C191.62 207.732 156.016 243.299 112.258 243.299Z"
        fill="#1C46AE" />
    <path d="M109 187H0V211H109V187Z" fill="#2657CE" />
    <path
        d="M92.9227 154.904L56.8212 130.9C53.8223 128.898 52.9928 124.819 54.9963 121.81L133.58 3.86603C135.583 0.870255 139.667 0.0416254 142.679 2.04306L178.78 26.0475C181.779 28.049 182.609 32.1283 180.605 35.1369L102.021 153.081C100.018 156.077 95.9216 156.893 92.9227 154.904Z"
        fill="#2657CE" />
    <path
        d="M132.675 114.378C142.881 114.378 151.154 106.114 151.154 95.9193C151.154 85.7246 142.881 77.4602 132.675 77.4602C122.47 77.4602 114.197 85.7246 114.197 95.9193C114.197 106.114 122.47 114.378 132.675 114.378Z"
        fill="#7696E3" />
    <path
        d="M132.675 104.473C137.777 104.473 141.914 100.341 141.914 95.2437C141.914 90.1464 137.777 86.0142 132.675 86.0142C127.572 86.0142 123.436 90.1464 123.436 95.2437C123.436 100.341 127.572 104.473 132.675 104.473Z"
        fill="#D54A41" />
    <path
        d="M140 146C146.075 146 151 141.075 151 135C151 128.925 146.075 124 140 124C133.925 124 129 128.925 129 135C129 141.075 133.925 146 140 146Z"
        fill="#D54A41" />
    <path
        d="M178 102C184.075 102 189 97.0751 189 91C189 84.9249 184.075 80 178 80C171.925 80 167 84.9249 167 91C167 97.0751 171.925 102 178 102Z"
        fill="#FFC341" />
</svg>