<svg width="242" height="125" viewBox="0 0 242 125" fill="none" xmlns="http://www.w3.org/2000/svg">
    <path d="M241.254 103.272L241.254 43.7517L37.4955 43.7517L37.4955 103.272L241.254 103.272Z" fill="#1C46AE" />
    <path d="M229.754 68.6529L229.754 43.7561L226.908 43.7561L226.908 68.6529L229.754 68.6529Z" fill="#2657CE" />
    <path d="M208.318 68.6498L208.318 43.7529L205.473 43.7529L205.473 68.6498L208.318 68.6498Z" fill="#2657CE" />
    <path d="M236.902 55.965L236.902 43.7524L234.057 43.7524L234.057 55.965L236.902 55.965Z" fill="#2657CE" />
    <path d="M222.943 55.9648L222.943 43.7522L220.098 43.7522L220.098 55.9648L222.943 55.9648Z" fill="#2657CE" />
    <path d="M215.711 55.9614L215.711 43.7488L212.865 43.7488L212.865 55.9614L215.711 55.9614Z" fill="#2657CE" />
    <path d="M186.111 68.6524L186.111 43.7556L183.266 43.7556L183.266 68.6524L186.111 68.6524Z" fill="#2657CE" />
    <path d="M200.736 55.9677L200.736 43.7551L197.891 43.7551L197.891 55.9677L200.736 55.9677Z" fill="#2657CE" />
    <path d="M193.504 55.9643L193.504 43.7517L190.658 43.7517L190.658 55.9643L193.504 55.9643Z" fill="#2657CE" />
    <path d="M163.492 68.6451L163.492 43.7483L160.646 43.7483L160.646 68.6451L163.492 68.6451Z" fill="#2657CE" />
    <path d="M178.117 55.9604L178.117 43.7478L175.271 43.7478L175.271 55.9604L178.117 55.9604Z" fill="#2657CE" />
    <path d="M170.885 55.9697L170.885 43.7571L168.039 43.7571L168.039 55.9697L170.885 55.9697Z" fill="#2657CE" />
    <path d="M141.285 68.6478L141.285 43.751L138.439 43.751L138.439 68.6478L141.285 68.6478Z" fill="#2657CE" />
    <path d="M155.91 55.9631L155.91 43.7505L153.064 43.7505L153.064 55.9631L155.91 55.9631Z" fill="#2657CE" />
    <path d="M148.678 55.9597L148.678 43.7471L145.832 43.7471L145.832 55.9597L148.678 55.9597Z" fill="#2657CE" />
    <path d="M117.828 68.6507L117.828 43.7539L114.982 43.7539L114.982 68.6507L117.828 68.6507Z" fill="#2657CE" />
    <path d="M132.451 55.966L132.451 43.7534L129.605 43.7534L129.605 55.966L132.451 55.966Z" fill="#2657CE" />
    <path d="M125.219 55.9626L125.219 43.75L122.373 43.75L122.373 55.9626L125.219 55.9626Z" fill="#2657CE" />
    <path d="M95.6211 68.6537L95.6211 43.7568L92.7753 43.7568L92.7753 68.6537L95.6211 68.6537Z" fill="#2657CE" />
    <path d="M110.244 55.9687L110.244 43.7561L107.398 43.7561L107.398 55.9687L110.244 55.9687Z" fill="#2657CE" />
    <path d="M103.012 55.9655L103.012 43.7529L100.166 43.7529L100.166 55.9655L103.012 55.9655Z" fill="#2657CE" />
    <path d="M72.7871 68.6442L72.7871 43.7473L69.9414 43.7473L69.9414 68.6442L72.7871 68.6442Z" fill="#2657CE" />
    <path d="M87.4121 55.9594L87.4121 43.7468L84.5664 43.7468L84.5664 55.9594L87.4121 55.9594Z" fill="#2657CE" />
    <path d="M80.1797 55.9689L80.1797 43.7563L77.334 43.7563L77.334 55.9689L80.1797 55.9689Z" fill="#2657CE" />
    <path d="M50.5801 68.6471L50.5801 43.7502L47.7344 43.7502L47.7344 68.6471L50.5801 68.6471Z" fill="#2657CE" />
    <path d="M65.2031 55.9624L65.2031 43.7498L62.3574 43.7498L62.3574 55.9624L65.2031 55.9624Z" fill="#2657CE" />
    <path d="M57.9727 55.9589L57.9727 43.7463L55.1269 43.7463L55.1269 55.9589L57.9727 55.9589Z" fill="#2657CE" />
    <path
        d="M44.7613 15.5127C44.7613 15.5127 44.1743 13.0269 42.2473 14.1487C40.3076 15.2705 42.0942 18.4703 44.0722 19.2351C46.0374 19.9873 44.7613 15.5127 44.7613 15.5127Z"
        fill="#FFD2B2" />
    <path
        d="M58.3259 15.1302C58.3259 15.1302 58.9129 12.6443 60.8398 13.7661C62.7795 14.8879 60.9929 18.0877 59.0149 18.8525C57.0625 19.6047 58.3259 15.1302 58.3259 15.1302Z"
        fill="#FFD2B2" />
    <path
        d="M58.9004 8.19519C59.1683 9.15129 58.3644 23.633 52.3028 25.1373C46.2412 26.6288 43.7017 15.3341 44.1229 8.79434C44.544 2.25463 56.6161 0.227705 58.9004 8.19519Z"
        fill="#FFD2B2" />
    <path
        d="M70.5511 108.662L76.8041 110.434C76.6382 111.48 74.188 122.481 73.4734 122.494C72.7588 122.494 73.0267 113.634 73.0267 113.634C73.0267 113.634 70.3214 113.252 69.9768 113.035C69.6705 112.844 70.5511 108.662 70.5511 108.662Z"
        fill="#383A45" />
    <path
        d="M25.1216 110.179L18.9707 112.308C19.1876 113.341 22.2631 124.189 22.9777 124.164C23.6924 124.126 22.9139 115.304 22.9139 115.304C22.9139 115.304 25.5938 114.768 25.9256 114.526C26.2446 114.297 25.1216 110.179 25.1216 110.179Z"
        fill="#383A45" />
    <path
        d="M45.0428 87.9723C45.0428 87.9723 77.4308 73.567 92.9357 85.6266C113.124 101.345 25.1226 115.584 25.1226 115.584L22.7617 110.396C22.7617 110.396 82.4715 87.4624 73.1047 91.0955C63.7508 94.7287 34.1192 100.95 45.0428 87.9723Z"
        fill="#0D1333" />
    <path
        d="M53.7324 85.1804C53.7324 85.1804 17.5161 74.3192 1.9346 86.264C-13.6596 98.2089 70.1433 117.318 70.1433 117.318L73.3592 108.981C73.3592 108.981 14.6448 87.2966 23.9349 91.0955C38.7124 97.1126 64.6432 98.1579 53.7324 85.1804Z"
        fill="#0D1333" />
    <path
        d="M38.7128 44.1447C38.7128 44.1447 11.3782 58.8431 16.3168 70.0103C21.2554 81.1776 33.5572 87.5515 35.1141 89.8844C36.671 92.2173 37.4749 95.8378 37.4749 95.8378C37.4749 95.8378 36.2499 94.563 32.0387 93.2627C27.8275 91.9624 7.53711 81.1138 7.53711 67.1293C7.53711 53.1448 30.2266 35.0553 34.3229 32.8372C38.432 30.5935 38.7128 44.1447 38.7128 44.1447Z"
        fill="#FFD2B2" />
    <path
        d="M65.4986 43.673C65.4986 43.673 89.2472 61.2907 84.3214 72.4452C79.3828 83.6124 69.4291 87.5388 67.8722 89.8717C66.3153 92.2046 65.5114 95.825 65.5114 95.825C65.5114 95.825 66.7364 94.5502 70.9476 93.2499C75.1589 91.9496 93.752 81.5218 93.752 67.5372C93.752 53.5526 72.7725 35.0426 68.6634 32.8244C64.5415 30.5935 65.4986 43.673 65.4986 43.673Z"
        fill="#FFD2B2" />
    <path
        d="M29.7539 90.6109H69.5689C69.5689 90.6109 71.968 33.9079 68.8543 32.1996C58.6326 26.6288 34.3735 29.65 33.1484 32.1996C31.9105 34.7492 29.7539 90.6109 29.7539 90.6109Z"
        fill="#FFC341" />
    <path
        d="M29.6774 73.1336C29.6774 73.1336 28.1971 100.554 29.6774 101.103C31.1577 101.651 67.9739 101.613 69.3266 101.103C70.6793 100.593 70.2964 73.1336 70.2964 73.1336C70.2964 73.1336 40.7414 71.5911 29.6774 73.1336Z"
        fill="#D54A41" />
    <path
        d="M29.6774 99.1394C29.6774 99.1394 28.1971 102.365 29.6774 102.428C31.1577 102.492 67.9739 102.492 69.3266 102.428C70.6793 102.365 70.2964 99.1394 70.2964 99.1394C70.2964 99.1394 40.7414 98.9609 29.6774 99.1394Z"
        fill="#9BD5CA" />
    <path
        d="M55.1374 18.33C55.1374 18.33 57.0388 29.1021 56.3242 30.2749C55.6095 31.4477 53.6954 33.9081 51.9216 33.9081C50.1477 33.9081 48.157 30.2749 48.0294 29.6885C47.9018 29.1021 48.0294 16.6473 48.0294 16.6473C48.0294 16.6473 53.1211 14.1869 55.1374 18.33Z"
        fill="#FFD2B2" />
    <path
        d="M45.6426 4.76607C45.6426 4.76607 46.8422 -0.486094 50.0963 0.0365737C53.3504 0.559242 58.238 -0.333134 59.7948 1.3751C61.3517 3.08333 62.0408 6.81851 58.6591 7.51965C55.2774 8.22079 47.3909 4.25616 46.4083 7.40492C43.8433 15.5764 47.3782 19.5155 47.3782 19.5155C49.4072 20.0382 55.1753 19.6047 56.4769 18.8526C58.9398 17.4248 56.4642 6.13013 57.6254 6.25761C58.7995 6.38509 59.7055 6.93322 59.5779 9.77603C59.4503 12.6188 58.7867 25.6345 56.3238 26.6289C54.6521 27.3045 48.5394 27.0368 47.5568 26.1572C45.6809 24.4617 42.0312 11.5863 43.0776 8.47575C44.124 5.35249 44.1368 4.89355 45.6426 4.76607Z"
        fill="#0D1333" />
    <path
        d="M37.5629 46.3374C37.5629 46.3374 27.9537 54.4451 26.1927 55.9494C24.4316 57.4409 16.3027 48.9635 16.3027 47.4337C16.3027 45.904 31.8714 32.952 33.1348 32.1999C34.4109 31.4477 38.52 39.5044 37.5629 46.3374Z"
        fill="#FFC341" />
    <path
        d="M64.4263 46.3374C64.4263 46.3374 74.0355 54.4451 75.7966 55.9494C77.5576 57.4409 85.6865 48.9635 85.6865 47.4337C85.6865 45.904 70.1178 32.952 68.8545 32.1999C67.5784 31.4477 63.4692 39.5044 64.4263 46.3374Z"
        fill="#FFC341" />
</svg>