<svg width="83" height="82" viewBox="0 0 83 82" fill="none" xmlns="http://www.w3.org/2000/svg">
    <path
        d="M31.3505 1.02657C30.4686 1.19448 29.8608 2.12445 30.0276 3.08025L30.7546 7.53637C30.9095 8.49217 31.7676 9.1509 32.6495 8.97007C33.5314 8.80216 34.1392 7.87219 33.9724 6.91639L33.2454 2.46027C33.1024 1.50447 32.2443 0.858656 31.3505 1.02657Z"
        fill="#FFADAA" />
    <path
        d="M44.5584 0.0189168C43.638 -0.122805 42.7789 0.547151 42.6439 1.51343L42.018 5.97122C41.883 6.9375 42.5212 7.83936 43.4416 7.98108C44.362 8.1228 45.2211 7.45285 45.3561 6.48657L45.982 2.02878C46.117 1.07539 45.4788 0.173522 44.5584 0.0189168Z"
        fill="#FFADAA" />
    <path
        d="M58.1904 2.30864C57.3639 1.73208 56.2663 1.9852 55.7369 2.88519L53.2834 7.01952C52.754 7.91951 52.9864 9.11481 53.8128 9.69136C54.6393 10.2679 55.7369 10.0148 56.2663 9.11481L58.7198 4.98048C59.2492 4.08049 59.0039 2.88519 58.1904 2.30864Z"
        fill="#FFADAA" />
    <path
        d="M66.4618 11.4511C65.799 10.7969 64.7575 10.8623 64.1657 11.5951L61.408 15.0103C60.8163 15.7431 60.8754 16.8946 61.5382 17.5489C62.201 18.2031 63.2425 18.1377 63.8343 17.4049L66.592 13.9897C67.1837 13.2438 67.1246 12.1054 66.4618 11.4511Z"
        fill="#FFADAA" />
    <path
        d="M74.8681 22.0056C74.5166 21.1707 73.5674 20.7714 72.7471 21.1344L68.9739 22.8042C68.1653 23.1672 67.7786 24.1474 68.1302 24.9944C68.4817 25.8293 69.4309 26.2286 70.2512 25.8656L74.0244 24.1958C74.8447 23.8207 75.2197 22.8405 74.8681 22.0056Z"
        fill="#FFADAA" />
    <path
        d="M80.9872 31.5053C80.8586 30.566 79.9714 29.8897 79.0071 30.0149L74.5454 30.566C73.5811 30.6912 72.8868 31.5554 73.0153 32.4947C73.1439 33.434 74.0311 34.1103 74.9954 33.9851L79.4571 33.434C80.4214 33.3088 81.1029 32.4446 80.9872 31.5053Z"
        fill="#FFADAA" />
    <path
        d="M82.9994 43.4362C82.9866 42.6277 82.1803 41.9895 81.2075 42.0001L76.728 42.0746C75.7553 42.0852 74.9874 42.7554 75.0002 43.5638C75.013 44.3723 75.8193 45.0105 76.792 44.9999L81.2715 44.9254C82.2443 44.9148 83.025 44.2446 82.9994 43.4362Z"
        fill="#FFADAA" />
    <path
        d="M81.9556 54.5232C82.1602 53.4882 81.6374 52.4532 80.7962 52.2015L76.9313 51.0546C76.0902 50.8028 75.249 51.4462 75.0444 52.4812C74.8398 53.5162 75.3627 54.5512 76.2038 54.803L80.0687 55.9498C80.9099 56.1876 81.751 55.5582 81.9556 54.5232Z"
        fill="#FFADAA" />
    <path
        d="M79.7902 65.0503C80.2362 64.1601 79.9469 63.027 79.1515 62.5279L75.4635 60.2348C74.6681 59.7357 73.6557 60.0594 73.2098 60.9497C72.7638 61.8399 73.0531 62.973 73.8485 63.4721L77.5365 65.7652C78.3319 66.2643 79.3443 65.9406 79.7902 65.0503Z"
        fill="#FFADAA" />
    <path
        d="M72.2483 72.6991C73.0359 72.1638 73.2391 71.0933 72.6929 70.3216L70.1778 66.7366C69.6316 65.9648 68.5392 65.7657 67.7517 66.3009C66.9641 66.8362 66.7609 67.9067 67.3071 68.6784L69.8222 72.2634C70.3684 73.0352 71.4608 73.2343 72.2483 72.6991Z"
        fill="#FFADAA" />
    <path
        d="M19.9727 4.22667C20.8707 3.73181 22.0136 4.07546 22.5034 4.98271L24.7756 9.21654C25.2655 10.1238 24.9253 11.2785 24.0273 11.7733C23.1293 12.2682 21.9864 11.9245 21.4966 11.0173L19.2244 6.78346C18.7345 5.87621 19.0747 4.72153 19.9727 4.22667Z"
        fill="#FFADAA" />
    <path
        d="M8.34435 13.6698C8.92615 12.9287 10.0139 12.7805 10.7854 13.3363L14.3142 15.9426C15.073 16.5108 15.2248 17.5731 14.6557 18.3265C14.0865 19.08 12.9861 19.2159 12.2146 18.66L8.68585 16.0538C7.92697 15.4856 7.77519 14.4109 8.34435 13.6698Z"
        fill="#FFADAA" />
    <path
        d="M3.18941 22.9936C3.62123 22.079 4.61681 21.7378 5.42046 22.2155L9.12688 24.4677C9.93053 24.9591 10.2304 26.0919 9.81059 27.0064C9.37877 27.921 8.3832 28.2622 7.57955 27.7845L3.87312 25.5323C3.06947 25.0409 2.76959 23.9081 3.18941 22.9936Z"
        fill="#FFADAA" />
    <path
        d="M-1.9975 35.769C-1.94625 34.7364 -1.11344 33.9483 -0.139691 34.0027L4.33188 34.2608C5.30563 34.3152 6.04875 35.1983 5.9975 36.231C5.94625 37.2636 5.11344 38.0517 4.13969 37.9973L-0.331871 37.7392C-1.30562 37.6848 -2.04875 36.8017 -1.9975 35.769Z"
        fill="#FFADAA" />
    <path
        d="M-3.95478 46.7929C-4.17558 45.9544 -3.56515 45.1159 -2.61704 44.9233L1.8118 44.0394C2.77289 43.8468 3.73399 44.3794 3.95478 45.2065C4.17558 46.045 3.56515 46.8835 2.61704 47.0762L-1.8118 47.96C-2.77289 48.1526 -3.73399 47.6314 -3.95478 46.7929Z"
        fill="#FFADAA" />
    <path
        d="M-1.89993 58.8095C-2.22988 57.8975 -1.71517 56.8828 -0.778127 56.5617L3.59033 55.0974C4.52737 54.7763 5.56999 55.2772 5.89993 56.1892C6.22988 57.1012 5.71517 58.1159 4.77813 58.437L0.409673 59.9013C-0.540565 60.2224 -1.56999 59.7343 -1.89993 58.8095Z"
        fill="#FFADAA" />
    <path
        d="M2.3257 68.2192C1.73216 67.4134 1.9724 66.3134 2.86271 65.7762L6.97511 63.2948C7.86542 62.7576 9.08076 62.975 9.6743 63.7808C10.2678 64.5866 10.0276 65.6866 9.13729 66.2238L5.02489 68.7052C4.13458 69.2424 2.91925 69.025 2.3257 68.2192Z"
        fill="#FFADAA" />
    <path
        d="M8.66115 77.5706C7.86795 76.9349 7.77053 75.7934 8.46633 75.054L11.6392 71.6163C12.321 70.8769 13.5456 70.7861 14.3388 71.4347C15.1321 72.0703 15.2295 73.2119 14.5337 73.9513L11.3608 77.389C10.679 78.1284 9.45436 78.2062 8.66115 77.5706Z"
        fill="#FFADAA" />
    <path
        d="M18.4287 81.9496C17.4196 81.7329 16.7976 80.8776 17.0602 80.045L18.2628 76.1788C18.5255 75.3462 19.5622 74.833 20.5713 75.0497C21.5804 75.2664 22.2024 76.1217 21.9398 76.9543L20.7372 80.8205C20.4745 81.6645 19.4378 82.1663 18.4287 81.9496Z"
        fill="#FFADAA" />
</svg>