<svg width="19" height="31" viewBox="0 0 19 31" fill="none" xmlns="http://www.w3.org/2000/svg">
    <path d="M4.71956 18.4062H13.6867V20.766H4.71956V18.4062Z" fill="#727779" />
    <path d="M4.71956 23.1258H13.6867V25.4856H4.71956V23.1258Z" fill="#727779" />
    <path
        d="M3.53966 2.35978H5.07352V0H13.3327V2.35978H14.8666C16.8184 2.35978 18.4062 3.94767 18.4062 5.89944V26.6655C18.4062 28.6172 16.8184 30.2051 14.8666 30.2051H3.53966C1.58789 30.2051 -1.90735e-06 28.6172 -1.90735e-06 26.6655V5.89944C-1.90735e-06 3.94767 1.58789 2.35978 3.53966 2.35978ZM2.35977 26.6655C2.35977 27.3161 2.88907 27.8454 3.53966 27.8454H14.8666C15.5172 27.8454 16.0465 27.3161 16.0465 26.6655V5.89944C16.0465 5.24885 15.5172 4.71955 14.8666 4.71955H3.53966C2.88907 4.71955 2.35977 5.24885 2.35977 5.89944V26.6655Z"
        fill="#727779" />
    <path d="M4.71956 13.6867H13.6867V16.0465H4.71956V13.6867Z" fill="#727779" />
</svg>