<svg width="28" height="28" viewBox="0 0 28 28" fill="none" xmlns="http://www.w3.org/2000/svg">
    <path
        d="M14.028 0C21.98 0 28 6.51978 28 13.979C28 22.6299 20.944 28 14 28C11.704 28 9.156 27.3831 7.112 26.1773C6.398 25.7426 5.796 25.4201 5.026 25.6725L2.198 26.5138C1.484 26.7381 0.84 26.1773 1.05 25.4201L1.988 22.2794C2.142 21.8448 2.114 21.3821 1.89 21.0175C0.686 18.8022 0 16.3766 0 14.021C0 6.64597 5.894 0 14.028 0ZM20.426 12.2404C19.432 12.2404 18.634 13.0396 18.634 14.0351C18.634 15.0165 19.432 15.8297 20.426 15.8297C21.42 15.8297 22.218 15.0165 22.218 14.0351C22.218 13.0396 21.42 12.2404 20.426 12.2404ZM13.972 12.2404C12.992 12.2263 12.18 13.0396 12.18 14.021C12.18 15.0165 12.978 15.8157 13.972 15.8297C14.966 15.8297 15.764 15.0165 15.764 14.0351C15.764 13.0396 14.966 12.2404 13.972 12.2404ZM7.518 12.2404C6.524 12.2404 5.726 13.0396 5.726 14.0351C5.726 15.0165 6.538 15.8297 7.518 15.8297C8.512 15.8157 9.31 15.0165 9.31 14.0351C9.31 13.0396 8.512 12.2404 7.518 12.2404Z"
        fill="#727779" />
</svg>