<svg width="72" height="53" viewBox="0 0 72 53" fill="none" xmlns="http://www.w3.org/2000/svg">
    <path
        d="M69.8856 0H2.11444C0.946688 0 0 0.978705 0 2.18595V42.4408C0 43.6481 0.946688 44.6268 2.11444 44.6268H28.5441V48.6281H22.8398C21.672 48.6281 20.7253 49.6068 20.7253 50.8141C20.7253 52.0213 21.672 53 22.8398 53H49.1601C50.3279 53 51.2745 52.0213 51.2745 50.8141C51.2745 49.6068 50.3279 48.6281 49.1601 48.6281H43.4559V44.6268H69.8856C71.0533 44.6268 72 43.6481 72 42.4408V2.18595C72 0.978705 71.0533 0 69.8856 0ZM39.2271 48.6282H32.7729V44.6269H39.2271V48.6282ZM67.7711 40.255H4.22888V4.37205H67.7711V40.255Z"
        fill="#121A1C" />
</svg>