<svg width="27" height="27" viewBox="0 0 27 27" fill="none" xmlns="http://www.w3.org/2000/svg">
    <path
        d="M14.8843 12.9255C15.1949 12.7666 15.541 12.6826 15.9 12.6826C16.495 12.6826 17.0544 12.9136 17.4761 13.3331L18.3838 12.4254C20.6301 13.2128 23.2283 12.7087 25.024 10.913C26.535 9.40205 27.1309 7.32312 26.8128 5.3635C26.7778 5.1477 26.625 4.9697 26.417 4.90255C26.209 4.83531 25.9807 4.88995 25.8262 5.04458L24.4784 6.39239C23.3808 7.48999 21.6011 7.48999 20.5035 6.39239C19.4058 5.29479 19.4058 3.5151 20.5035 2.4175L21.8513 1.06969C22.0059 0.915055 22.061 0.686741 21.9937 0.478664C21.9264 0.270495 21.7482 0.118071 21.5323 0.0830234C19.5727 -0.235071 17.4937 0.360827 15.9828 1.87182C14.1604 3.69429 13.6699 6.34281 14.5081 8.61169L12.5393 10.5804L14.8843 12.9255Z"
        fill="#727779" />
    <path
        d="M11.2967 16.493L8.96161 14.1578L0.796294 22.3231C-0.265431 23.3848 -0.265431 25.1062 0.796294 26.1679C1.85802 27.2296 3.57939 27.2296 4.64112 26.1679L11.6801 19.129C10.9702 18.4152 10.8422 17.3377 11.2967 16.493Z"
        fill="#727779" />
    <path
        d="M16.5047 14.3129C16.3377 14.146 16.1188 14.0624 15.9 14.0624C15.6811 14.0624 15.4622 14.146 15.2952 14.3129L14.8078 14.8004L6.12485 6.11743L6.5307 5.71158C6.9005 5.34188 6.85459 4.7286 6.4331 4.41823L2.89046 1.80917C2.55001 1.55851 2.07756 1.59411 1.7786 1.89307L0.274415 3.39735C-0.0245463 3.69631 -0.0601456 4.16885 0.190522 4.50921L2.79949 8.05185C3.10985 8.47325 3.72277 8.51961 4.09284 8.14945L4.49869 7.74351L13.1816 16.4264L12.6599 16.9482C12.3259 17.2822 12.3259 17.8236 12.6599 18.1577L20.6701 26.1679C21.7318 27.2296 23.4532 27.2296 24.5149 26.1679C25.5766 25.1062 25.5766 23.3848 24.5149 22.3231L16.5047 14.3129Z"
        fill="#727779" />
</svg>