<svg width="52" height="52" viewBox="0 0 52 52" fill="none" xmlns="http://www.w3.org/2000/svg">
    <path
        d="M43.875 26.8125H39.8125C38.6906 26.8125 37.7812 27.7219 37.7812 28.8438V49.9688C37.7812 51.0906 38.6906 52 39.8125 52H43.875C48.3551 52 52 48.3551 52 43.875V34.9375C52 30.4574 48.3551 26.8125 43.875 26.8125ZM47.9375 43.875C47.9375 46.1151 46.1151 47.9375 43.875 47.9375H41.8438V30.875H43.875C46.1151 30.875 47.9375 32.6974 47.9375 34.9375V43.875Z"
        fill="black" />
    <path
        d="M26 4.0625C35.3055 4.0625 42.9581 11.0404 43.8006 20.2935C43.9022 21.4107 44.8911 22.2335 46.0076 22.1322C47.1248 22.0305 47.948 21.0423 47.8463 19.9251C47.3521 14.4976 44.8607 9.47152 40.8308 5.77241C36.7755 2.05004 31.5083 0 26 0C20.1402 0 14.6313 2.28191 10.4879 6.42535C6.34441 10.5688 4.0625 16.0777 4.0625 21.9375V27.903C1.63566 29.3098 0 31.9362 0 34.9375V43.875C0 48.3551 3.64488 52 8.125 52H12.1875C13.3094 52 14.2188 51.0906 14.2188 49.9688V28.8438C14.2188 27.7219 13.3094 26.8125 12.1875 26.8125H8.125V21.9375C8.125 12.0812 16.1437 4.0625 26 4.0625ZM10.1562 30.875V47.9375H8.125C5.88494 47.9375 4.0625 46.1151 4.0625 43.875V34.9375C4.0625 32.6974 5.88494 30.875 8.125 30.875H10.1562Z"
        fill="black" />
</svg>