<svg width="37" height="26" viewBox="0 0 37 26" fill="none" xmlns="http://www.w3.org/2000/svg">
    <path
        d="M35.9949 7.47798C35.9811 7.45765 35.9653 7.43858 35.9479 7.42109C31.1622 2.63557 24.7996 0 18.0319 0C11.2646 0 4.90246 2.63501 0.117091 7.42007C0.0427223 7.49388 0 7.59491 0 7.70108C0 7.80599 0.0416146 7.90662 0.115904 7.98083L2.73565 10.6007C2.80986 10.6749 2.91041 10.7165 3.01532 10.7165C3.12023 10.7165 3.22086 10.6748 3.29499 10.6007C7.23778 6.65763 12.4714 4.48623 18.0319 4.48623C23.5923 4.48623 28.8259 6.65771 32.7688 10.6006C32.843 10.6748 32.9435 10.7164 33.0484 10.7164C33.1533 10.7164 33.254 10.6747 33.328 10.6006L35.9478 7.98076C36.022 7.90655 36.0637 7.80599 36.0637 7.701C36.0638 7.62149 36.0397 7.5438 35.9949 7.47798Z"
        fill="#727779" />
    <path
        d="M18.0319 6.92828C13.1223 6.92828 8.50159 8.84533 5.02075 12.3262C4.86632 12.4808 4.86632 12.7312 5.02083 12.8857L7.63243 15.4972C7.70664 15.5714 7.80719 15.6131 7.9121 15.6131C8.01701 15.6131 8.11764 15.5714 8.19177 15.4972C10.8245 12.8645 14.3191 11.4144 18.0319 11.4144C21.7449 11.4144 25.2395 12.8645 27.8719 15.4972C27.9461 15.5714 28.0468 15.6131 28.1517 15.6131C28.2566 15.6131 28.3572 15.5714 28.4314 15.4972L31.043 12.8857C31.1172 12.8115 31.1589 12.7109 31.1589 12.6059C31.1589 12.5009 31.1174 12.4004 31.043 12.3262C27.5622 8.84541 22.9415 6.92828 18.0319 6.92828Z"
        fill="#727779" />
    <path
        d="M18.0319 13.8566C14.9701 13.8566 12.0883 15.0521 9.91754 17.2229C9.84325 17.2971 9.80164 17.3977 9.80164 17.5027C9.80164 17.6076 9.84317 17.7083 9.91754 17.7824L12.5291 20.394C12.6033 20.4682 12.7039 20.5099 12.8088 20.5099C12.9137 20.5099 13.0143 20.4682 13.0885 20.394C14.4112 19.0713 16.1668 18.3429 18.0319 18.3429C19.8971 18.3429 21.6528 19.0714 22.9754 20.394C23.0497 20.4682 23.1502 20.5099 23.255 20.5099C23.3599 20.5099 23.4606 20.4682 23.5347 20.394L26.1463 17.7824C26.3007 17.6279 26.3007 17.3774 26.1463 17.2231C23.9756 15.0521 21.0938 13.8566 18.0319 13.8566Z"
        fill="#727779" />
    <path
        d="M18.0319 21.1978C16.9622 21.1978 15.9568 21.6143 15.2009 22.3705C15.0464 22.525 15.0464 22.7754 15.2009 22.9298L17.7523 25.4813C17.8265 25.5555 17.927 25.5972 18.0319 25.5972C18.1368 25.5972 18.2375 25.5555 18.3116 25.4813L20.8629 22.9298C21.0173 22.7753 21.0173 22.5249 20.8629 22.3704C20.1069 21.6143 19.1015 21.1978 18.0319 21.1978Z"
        fill="#727779" />
</svg>