<svg width="66" height="45" viewBox="0 0 66 45" fill="none" xmlns="http://www.w3.org/2000/svg">
    <path
        d="M59.1671 33.8089V31.3949V16.9045V2.41405C59.1671 1.08785 58.0816 0 56.7531 0H8.45375C7.12526 0 6.03665 1.0825 6.03665 2.41405V16.9045V31.3949V33.8089L0 41.0541C0 43.0503 1.62108 44.6737 3.6226 44.6737H61.5842C63.5827 44.6737 65.2068 43.0495 65.2068 41.0541L59.1671 33.8089ZM37.4369 43.4704H27.7753C27.4415 43.4704 27.171 43.2023 27.171 42.8662C27.171 42.53 27.4415 42.2619 27.7753 42.2619H37.4376C37.7684 42.2619 38.0419 42.53 38.0419 42.8662C38.0327 43.2031 37.7676 43.4704 37.4369 43.4704ZM22.6485 41.0564L24.4911 38.8448H40.7119L42.5575 41.0564H22.6485ZM55.7683 29.5377C55.7683 30.7027 54.8195 31.6454 53.6629 31.6454H11.5431C10.3865 31.6454 9.43771 30.6943 9.43771 29.5377V4.27577C9.43771 3.11076 10.3865 2.16806 11.5431 2.16806H53.6637C54.8203 2.16806 55.7691 3.11687 55.7691 4.27577C55.7683 4.27577 55.7683 29.5377 55.7683 29.5377Z"
        fill="black" />
</svg>