<svg width="34" height="25" viewBox="0 0 34 25" fill="none" xmlns="http://www.w3.org/2000/svg">
    <path
        d="M33.8055 2.42517C33.8055 2.38651 33.8321 2.34888 33.8304 2.31067L23.5065 12.2583L33.818 21.8882C33.8241 21.8194 33.8055 21.75 33.8055 21.6798V2.42517Z"
        fill="#727779" />
    <path
        d="M21.9305 13.7891L17.716 17.844C17.5027 18.0492 17.2273 18.1521 16.9517 18.1521C16.6818 18.1521 16.412 18.0536 16.2002 17.8562L11.9971 13.9396L1.61826 23.9437C1.87062 24.0344 2.14151 24.1048 2.42518 24.1048H31.4784C31.8996 24.1048 32.2947 23.9765 32.6382 23.7851L21.9305 13.7891Z"
        fill="#727779" />
    <path
        d="M16.9397 15.5317L32.6954 0.35437C32.3387 0.142277 31.9234 0 31.4784 0H2.42519C1.84564 0 1.3146 0.225027 0.901001 0.568227L16.9397 15.5317Z"
        fill="#727779" />
    <path d="M0 2.79486V21.6795C0 21.8963 0.0498264 22.1053 0.103915 22.305L10.354 12.4344L0 2.79486Z" fill="#727779" />
</svg>