<svg width="28" height="28" viewBox="0 0 28 28" fill="none" xmlns="http://www.w3.org/2000/svg">
    <path
        d="M22.6336 17.3309C21.6932 17.1286 20.9492 17.5652 20.2905 17.9465C19.6159 18.3394 18.3332 19.38 17.5979 19.1137C13.8335 17.5637 10.293 14.2688 8.76034 10.4893C8.49022 9.73837 9.52594 8.44748 9.91596 7.76492C10.2944 7.1042 10.722 6.35324 10.527 5.40581C10.3508 4.55444 8.07131 1.65394 7.26526 0.860781C6.73368 0.336858 6.18909 0.0486999 5.63006 0.00212891C3.52828 -0.0881023 1.18092 2.71634 0.769233 3.38725C-0.262157 4.81786 -0.256379 6.72144 0.786568 9.02962C3.30004 15.2294 12.8065 24.5858 19.0295 27.1937C20.1779 27.7308 21.228 28 22.1713 28C23.0944 28 23.9163 27.7424 24.6227 27.2316C25.1557 26.9245 28.0751 24.4606 27.9985 22.3023C27.9523 21.7522 27.6648 21.2021 27.1477 20.6694C26.3604 19.8559 23.4786 17.5084 22.6336 17.3309Z"
        fill="black" />
</svg>