<svg width="34" height="61" viewBox="0 0 34 61" fill="none" xmlns="http://www.w3.org/2000/svg">
    <path
        d="M29.6287 0H4.36748C1.95163 0 0 1.95921 0 4.37506V55.6669C0 58.0751 1.95163 60.0362 4.36748 60.0362H29.6287C32.0408 60.0362 34 58.077 34 55.6669V4.37506C33.9981 1.95921 32.0408 0 29.6287 0ZM30.7239 48.6429H3.27608V7.38018H30.7239V48.6429ZM22.8549 4.43948H11.1432V3.16239H22.8568L22.8549 4.43948ZM27.8666 3.85589C27.8666 4.47358 27.3626 4.97381 26.7468 4.97381C26.1291 4.97381 25.627 4.47169 25.627 3.85589C25.627 3.24008 26.1291 2.73796 26.7468 2.73796C27.3645 2.73607 27.8666 3.23819 27.8666 3.85589ZM22.33 55.3751H11.6643V52.0933H22.33V55.3751Z"
        fill="#121A1C" />
</svg>