<svg width="25" height="26" viewBox="0 0 25 26" fill="none" xmlns="http://www.w3.org/2000/svg">
    <path
        d="M12.5 0C5.63428 0 0 5.85965 0 13C0 20.1404 5.63428 26 12.5 26C19.3657 26 25 20.1404 25 13C25 5.85965 19.3657 0 12.5 0ZM11.7676 5.38281C11.7676 4.96179 12.0952 4.62109 12.5 4.62109C12.9048 4.62109 13.2324 4.96179 13.2324 5.38281V13C13.2324 13.421 12.9048 13.7617 12.5 13.7617C12.0952 13.7617 11.7676 13.421 11.7676 13V5.38281ZM12.5 21.3789C8.05757 21.3789 4.44336 17.6201 4.44336 13C4.44336 9.67342 6.34023 6.6593 9.27632 5.32106C9.64897 5.15592 10.0803 5.32848 10.2412 5.71309C10.4036 6.09842 10.2348 6.54773 9.86426 6.71658C7.46104 7.81153 5.9082 10.2782 5.9082 13C5.9082 16.7803 8.86509 19.8555 12.5 19.8555C16.1349 19.8555 19.0918 16.7803 19.0918 13C19.0918 10.2782 17.539 7.81153 15.1357 6.71658C14.7652 6.54773 14.5964 6.09842 14.7587 5.71309C14.9197 5.32777 15.3517 5.14998 15.7236 5.32106C18.6598 6.6593 20.5566 9.67342 20.5566 13C20.5566 17.6201 16.9424 21.3789 12.5 21.3789Z"
        fill="black" />
</svg>