<svg width="36" height="35" viewBox="0 0 36 35" fill="none" xmlns="http://www.w3.org/2000/svg">
    <path
        d="M3.98303 26.6159C3.70212 26.9575 3.49602 27.3513 3.37742 27.7732C3.25881 28.195 3.2302 28.636 3.29334 29.069C3.35649 29.502 3.51005 29.9179 3.7446 30.2911C3.97914 30.6643 4.28971 30.9869 4.65721 31.2391C6.02522 32.1618 7.74667 31.9964 8.9674 30.8127C13.1598 26.74 17.3521 22.6641 21.5379 18.5818C21.7474 18.3782 21.911 18.3114 22.2154 18.41C23.6161 18.8745 25.0496 18.9286 26.4896 18.6041C27.5279 18.3743 28.5088 17.9456 29.3749 17.3432C30.241 16.7408 30.975 15.9767 31.5341 15.0955C32.0932 14.2143 32.4661 13.2337 32.6311 12.2108C32.796 11.188 32.7498 10.1435 32.495 9.13817C32.4198 8.83908 32.3085 8.54953 32.1874 8.16772C32.0729 8.30772 28.9245 11.3909 27.4125 12.8768C27.335 12.964 27.2351 13.0296 27.123 13.0671C27.0109 13.1045 26.8906 13.1124 26.7743 13.09C26.4438 13.0391 23.8485 12.8354 22.9092 12.7273C22.7521 11.4227 22.6703 10.0673 22.5329 8.78817C22.5198 8.66726 22.6081 8.50181 22.6998 8.40953C23.8452 7.28317 27.059 4.16817 27.5303 3.71317C26.5092 3.24544 24.7583 3.05771 23.4558 3.26771C22.3024 3.4409 21.2018 3.85678 20.2309 4.48632C19.2599 5.11585 18.442 5.94387 17.8343 6.91253C17.2266 7.8812 16.8437 8.96716 16.7124 10.0946C16.581 11.222 16.7044 12.3637 17.0739 13.44C17.159 13.6945 17.1067 13.8409 16.9201 14.0191L3.98303 26.6191V26.6159Z"
        fill="#727779" />
</svg>