<svg width="42" height="53" viewBox="0 0 42 53" fill="none" xmlns="http://www.w3.org/2000/svg">
    <path
        d="M4.66708 0H37.3326C39.9099 0 42 2.08935 42 4.66651V47.8338C42 50.411 39.9101 52.5003 37.3326 52.5003H4.66717C2.09018 52.5003 1.52588e-05 50.4113 1.52588e-05 47.8338V4.66633C1.52588e-05 2.08916 2.09018 0 4.66708 0ZM21 49.9374C22.104 49.9374 23.0031 49.0411 23.0031 47.9334C23.0031 46.8278 22.104 45.9298 21 45.9298C19.8943 45.9298 18.9952 46.8278 18.9952 47.9334C18.9951 49.0411 19.8943 49.9374 21 49.9374ZM4.08273 42.8947C4.08273 43.4571 4.53928 43.9125 5.10118 43.9125H36.8987C37.4608 43.9125 37.917 43.4569 37.917 42.8947V4.99954C37.917 4.43728 37.4608 3.98191 36.8987 3.98191H5.10118C4.53928 3.98191 4.08273 4.43728 4.08273 4.99954V42.8947Z"
        fill="black" />
</svg>