<svg width="50" height="64" viewBox="0 0 50 64" fill="none" xmlns="http://www.w3.org/2000/svg">
    <path
        d="M45.3396 29.7273C44.6365 22.6477 40.6794 16.5327 34.9916 12.8764L31.8182 0.181824H13.6364L10.4602 12.8868C4.17429 16.9297 0 23.9708 0 32C0 40.0291 4.17415 47.0701 10.4602 51.1131L13.6364 63.8182H31.8182L34.9918 51.1235C40.6794 47.4669 44.6365 41.352 45.3396 34.2727H50V29.7273H45.3396ZM22.7273 50.1818C12.7017 50.1818 4.54546 42.0254 4.54546 32C4.54546 21.9746 12.7017 13.8182 22.7273 13.8182C32.7529 13.8182 40.9091 21.9746 40.9091 32C40.9091 42.0254 32.7529 50.1818 22.7273 50.1818Z"
        fill="#121A1C" />
    <path d="M25 32.1749V20.6364H20.4546V33.575L26.1908 41.8521L29.9068 39.2818L25 32.1749Z" fill="#121A1C" />
</svg>