<svg width="95" height="180" viewBox="0 0 95 180" fill="none" xmlns="http://www.w3.org/2000/svg">
    <path
        d="M39.5782 173.401L39.5272 179.469C38.5446 179.584 28.0039 180.094 27.8252 179.457C27.6465 178.819 35.6988 176.869 35.6988 176.869C35.6988 176.869 35.3798 174.332 35.4819 173.975C35.584 173.644 39.5782 173.401 39.5782 173.401Z"
        fill="#0D1333" />
    <path
        d="M54.5993 173.414L54.3569 179.482C53.3742 179.559 42.8207 179.75 42.6549 179.1C42.489 178.45 50.6051 176.754 50.6051 176.754C50.6051 176.754 50.3626 174.204 50.4775 173.848C50.5923 173.529 54.5993 173.414 54.5993 173.414Z"
        fill="#0D1333" />
    <path
        d="M61.7592 98.558C61.7592 98.558 69.2883 44.6467 61.772 36.9851C50.0189 25.002 29.4989 33.9766 28.6694 35.3534C25.3004 40.937 24.9941 97.1812 24.9941 97.1812L61.7592 98.558Z"
        fill="#2657CE" />
    <path
        d="M24.9934 97.1811C24.9934 97.1811 7.42121 119.732 10.3435 131.091C13.2531 142.449 33.3137 174.944 33.3137 174.944H41.8255C41.8255 174.944 23.6279 134.749 25.0062 130.594C26.3844 126.438 43.3951 109.687 43.3951 109.687C43.3951 109.687 44.3777 154.292 49.597 174.944H55.531C55.531 174.944 61.835 125.074 61.784 96.2505L24.9934 97.1811Z"
        fill="#0D1333" />
    <path
        d="M54.5859 32.332L53.4629 130.67H63.1231C63.1231 130.67 66.441 42.8874 65.1139 38.0814C63.7867 33.2754 54.5859 32.332 54.5859 32.332Z"
        fill="#FBE4D3" />
    <path
        d="M11.1855 118.7L16.8643 123.021C16.8643 123.021 33.7729 99.055 33.3008 96.2505C32.8286 93.4459 35.5978 32.332 35.5978 32.332C35.5978 32.332 29.4724 32.5997 28.2346 37.2528C24.5593 51.1353 24.9932 94.0961 24.9932 94.0961C24.9932 94.0961 16.1497 108.055 11.1855 118.7Z"
        fill="#FBE4D3" />
    <path
        d="M46.3439 15.1732C46.3439 15.1732 46.4715 11.5273 48.1688 11.8842C49.866 12.2284 51.0911 15.8106 50.185 17.1236C49.279 18.4367 46.3184 18.22 46.3439 15.1732Z"
        fill="#FFD2B2" />
    <path
        d="M35.0495 10.9665C35.0495 10.9665 31.5401 21.0374 37.6145 22.7329C43.6888 24.4284 42.5786 18.0034 42.3361 19.2144C42.0936 20.4255 40.9451 32.0516 40.9451 32.0516C40.9451 32.0516 43.6122 34.3463 49.4186 30.9553C49.4186 30.9553 46.9429 14.8164 46.241 6.88712C45.9475 3.41967 37.2444 6.88711 35.0495 10.9665Z"
        fill="#FFD2B2" />
    <path
        d="M45.6531 3.77654C45.6531 3.77654 44.2877 -0.9402 41.3781 0.168875C38.4685 1.27795 38.8641 2.87145 36.7585 1.97909C34.6529 1.07398 32.4963 4.38845 33.6065 6.49187C35.074 9.25818 35.0485 10.0995 39.0683 9.19443C43.0881 8.28932 45.1937 6.88706 46.0997 8.49331C47.0058 10.0996 45.3979 14.2044 46.5974 14.7143C47.797 15.2242 47.7077 12.0118 48.601 13.2101C49.4942 14.4084 50.9107 17.4934 48.4989 17.0982C46.087 16.7158 47.8736 19.9283 48.7924 19.8263C49.7112 19.7243 53.8969 16.2951 53.4247 11.7058C53.1184 8.79925 50.0685 10.3035 50.9107 8.20009C51.7657 6.08393 49.8388 1.57114 45.6531 3.77654Z"
        fill="#0D1333" />
    <path
        d="M65.4197 98.558C65.4197 98.558 60.1748 94.8356 67.0404 87.5055C72.7829 81.3737 86.8712 66.2546 82.0092 60.7347C77.1472 55.2148 65.4197 50.9188 65.4197 50.9188L63.0078 35.2515C63.0078 35.2515 88.9003 45.2841 94.1579 59.6256C99.1348 73.1767 70.69 89.3539 68.2909 91.3936C65.0879 94.1089 65.4197 98.558 65.4197 98.558Z"
        fill="#FFD2B2" />
    <path
        d="M28.6684 35.3533C28.6684 35.3533 1.3211 43.9964 0.0449818 63.1184C-1.23114 82.2404 25.0825 89.3793 23.3852 92.5918C22.007 95.2306 17.5917 96.0847 18.8678 95.9062C20.1439 95.7278 27.137 98.4176 25.0825 89.3665C23.0152 80.3154 3.35014 73.6228 12.1681 61.8309C16.877 55.5334 26.3969 52.1679 26.3969 52.1679C26.3969 52.1679 27.4178 39.5219 28.6684 35.3533Z"
        fill="#FFD2B2" />
    <path
        d="M63.9654 52.1678L76.6245 56.7444C76.6245 56.7444 84.3578 47.4001 83.8474 47.0049C83.3497 46.6097 70.7288 35.6465 57.2402 32.8164C57.2402 32.8037 60.7751 49.4525 63.9654 52.1678Z"
        fill="#FBE4D3" />
    <path
        d="M30.353 52.1679C30.353 52.1679 20.999 54.9342 16.7368 58.9753C16.7368 58.9753 6.85958 48.6112 7.10205 48.3562C7.34451 48.1012 16.1498 38.0558 33.0711 32.8164L30.353 52.1679Z"
        fill="#FBE4D3" />
</svg>