<svg width="58" height="58" viewBox="0 0 58 58" fill="none" xmlns="http://www.w3.org/2000/svg">
    <path
        d="M28.6234 57.1877C44.4317 57.1877 57.2468 44.3859 57.2468 28.594C57.2468 12.8021 44.4317 0.000244141 28.6234 0.000244141C12.8151 0.000244141 0 12.8021 0 28.594C0 44.3859 12.8151 57.1877 28.6234 57.1877Z"
        fill="#FFC341" />
    <path fill-rule="evenodd" clip-rule="evenodd"
        d="M28.9424 0.00637293C29.0477 0.00955939 29.153 0.0127459 29.2615 0.0127459V28.581V28.5811H37.4153L37.4157 28.5683C37.7475 19.2878 40.976 11.0781 45.838 5.74939L45.8388 5.74997C46.1703 6.00474 46.5019 6.25951 46.8207 6.52702C42.1501 11.6135 39.0236 19.5682 38.6918 28.5683C38.679 28.989 38.6663 29.4224 38.6663 29.8431V30.1745C38.6663 38.7539 41.193 46.4665 45.2255 51.8716C44.8812 52.1137 44.5368 52.343 44.1925 52.5724L44.1919 52.5728C40.0062 46.9509 37.3901 38.9962 37.3901 30.1745V29.8559H29.2615V57.162C29.153 57.162 29.0477 57.1652 28.9424 57.1684C28.8372 57.1716 28.7319 57.1747 28.6234 57.1747C28.5149 57.1747 28.4097 57.1716 28.3044 57.1684C28.1991 57.1652 28.0938 57.162 27.9854 57.162V29.8559H19.8441C19.8441 29.8559 19.8441 29.8559 19.8441 29.8559V30.1874C19.8441 39.009 17.2281 46.9637 13.0424 52.5856C12.6978 52.3561 12.3533 52.1267 12.0087 51.8844C16.0413 46.4793 18.568 38.754 18.568 30.1874V29.8559C18.568 29.4352 18.5552 29.0018 18.5425 28.5811C18.2107 19.581 15.0969 11.639 10.4136 6.53983C10.7326 6.27212 11.0644 6.01717 11.3962 5.76221C16.2582 11.0909 19.4868 19.3005 19.8186 28.5811H27.9854V28.5682V0.0127459C28.0938 0.0127459 28.1991 0.00955939 28.3044 0.00637293C28.4097 0.00318646 28.5149 0 28.6234 0C28.7319 0 28.8372 0.00318646 28.9424 0.00637293ZM0 28.5811V28.5938C0 29.0145 0.0127472 29.4352 0.0255084 29.8559H18.5676C18.5676 29.4352 18.5548 29.0017 18.542 28.5811H0ZM57.2086 29.8536L57.2085 29.8559H38.6665C38.6665 29.4352 38.6793 29.0017 38.6921 28.5811H57.2341V28.5938C57.2341 29.0137 57.2214 29.4337 57.2086 29.8536Z"
        fill="white" />
</svg>