<svg width="62" height="98" viewBox="0 0 62 98" fill="none" xmlns="http://www.w3.org/2000/svg">
    <path
        d="M30.9334 60.8164C47.6227 60.8164 61.152 47.3011 61.152 30.6291C61.152 13.9572 47.6227 0.441895 30.9334 0.441895C14.2442 0.441895 0.714844 13.9572 0.714844 30.6291C0.714844 47.3011 14.2442 60.8164 30.9334 60.8164Z"
        fill="#FFC341" />
    <path
        d="M38.782 74.8264L30.9339 30.6418L1.1875 35.9195C1.1875 35.9195 3.61213 50.5287 15.8501 57.8843C25.0127 63.3914 27.4118 76.8533 27.4118 76.8533L38.782 74.8264Z"
        fill="#FFC341" />
    <path
        d="M38.5767 74.8519L30.7285 30.6673L60.4749 25.3896C60.4749 25.3896 63.2313 39.9351 54.273 51.0514C47.5606 59.3758 49.9597 72.8249 49.9597 72.8249L38.5767 74.8519Z"
        fill="#FFC341" />
    <path
        d="M30.1814 76.9935C29.8369 77.0573 29.5051 76.8278 29.4413 76.4836L23.8646 45.098C23.8136 44.7921 23.9795 44.4861 24.273 44.3842C24.5665 44.2822 24.8855 44.3969 25.0387 44.6646C26.9401 48.0173 29.2116 50.9111 29.9134 50.8856C29.9007 50.8729 30.0666 50.7072 30.1942 50.006C30.0666 49.8148 29.9517 49.5981 29.8496 49.3686C29.0202 47.5966 28.5735 44.1037 29.6327 43.4536C29.9262 43.2751 30.2708 43.3006 30.5515 43.5045C31.3555 44.1292 31.7383 47.4692 31.5214 49.6491C31.968 50.1845 32.4657 50.3247 33.0782 50.1208C33.5759 49.955 33.946 49.5981 34.1757 49.0882C33.3079 48.2723 32.7337 47.1377 32.4529 46.1179C32.1211 44.9196 32.0829 43.4281 32.9506 42.8544C33.2952 42.6249 33.7035 42.6249 34.0736 42.8544C35.12 43.4918 35.9367 46.1179 35.707 48.1703C35.6943 48.3233 35.6688 48.4635 35.6432 48.6037C35.975 48.7822 36.3323 48.8969 36.7279 48.9224C37.1108 48.9479 37.417 48.7822 37.6467 48.4635C36.6769 46.9338 35.8219 44.8303 35.8985 43.53C35.9495 42.5867 36.46 42.2297 36.7662 42.1023C37.2767 41.8855 37.8254 42.0258 38.2593 42.472C39.2547 43.5045 39.7906 46.4111 39.1143 48.3488C39.344 48.6675 39.5609 48.9097 39.7141 49.0372C40.1607 48.1703 40.6329 44.7666 40.8243 41.8346C40.8498 41.5159 41.105 41.2609 41.4241 41.2354C41.7431 41.2226 42.0366 41.4394 42.0876 41.7581L47.3453 71.1804C47.4091 71.5246 47.1794 71.8561 46.8348 71.9198C46.4903 71.9836 46.1585 71.7541 46.0947 71.4099L41.6665 46.4876C41.3858 48.2723 40.9774 49.8275 40.3904 50.261C40.2373 50.3757 39.8417 50.5924 39.2802 50.2865C39.025 50.1462 38.7442 49.8913 38.4507 49.5471C37.9913 50.0188 37.3915 50.2482 36.6897 50.2227C36.1664 50.1972 35.6815 50.057 35.2476 49.853C34.8648 50.5797 34.265 51.1023 33.5121 51.3573C32.6826 51.6378 31.9042 51.5485 31.2406 51.1023C30.9088 51.931 30.4111 52.1477 30.0283 52.1732C28.7905 52.2624 27.0805 50.1972 25.715 48.1703L30.7046 76.2542C30.7684 76.5983 30.5388 76.9298 30.1814 76.9935ZM33.5887 44.1164C33.4994 44.4351 33.4738 45.1363 33.7929 46.0924C33.946 46.5768 34.1885 47.0612 34.4947 47.5074C34.5075 46.0286 33.9715 44.6009 33.5887 44.1164ZM37.2639 43.3006C37.2511 43.3261 37.1491 43.5555 37.2384 44.1547C37.366 44.9578 37.7233 45.9012 38.1572 46.7425C38.2465 45.0343 37.6212 43.4153 37.2639 43.3006Z"
        fill="#FFFAEF" />
    <path
        d="M53.7384 28.1943C53.6746 28.2071 53.5981 28.2198 53.5343 28.2198C52.1433 28.3346 50.8672 27.1235 50.7013 25.53C49.3358 12.4506 40.0584 11.418 39.6628 11.3797C38.2591 11.2523 37.1616 9.84998 37.2126 8.24374C37.2637 6.65024 38.4377 5.46467 39.8542 5.59215C44.7035 6.05108 54.2744 10.7296 55.7675 25.1093C55.9078 26.6518 55.0273 27.9776 53.7384 28.1943Z"
        fill="#FFFAEF" />
    <path d="M49.915 69.2546L26.5195 73.4038L29.9771 92.8589L53.3725 88.7097L49.915 69.2546Z" fill="#0D1333" />
    <path d="M48.3008 80.2299L31.3008 83.2449L33.7456 97.0015L50.7456 93.9865L48.3008 80.2299Z" fill="#0D1333" />
    <path
        d="M32.7205 9.46741C34.264 9.46741 35.5152 8.21747 35.5152 6.6756C35.5152 5.13372 34.264 3.88379 32.7205 3.88379C31.177 3.88379 29.9258 5.13372 29.9258 6.6756C29.9258 8.21747 31.177 9.46741 32.7205 9.46741Z"
        fill="#FFFAEF" />
</svg>