<svg width="323" height="432" viewBox="0 0 323 432" fill="none" xmlns="http://www.w3.org/2000/svg">
    <path
        d="M185.171 83.0851C197.409 75.5127 191.602 56.9772 179.76 50.4247C167.918 43.8722 173.749 41.3354 174.298 26.4075C175.204 1.17918 159.904 0.197588 159.904 0.197588C159.904 0.197588 145.509 -0.631033 145.509 26.4075C145.509 41.3481 151.889 43.8722 140.047 50.4247C128.205 56.9772 122.411 75.5127 134.636 83.0851C149.375 92.2126 118.2 96.7764 123.496 122.4C127.094 139.788 146.058 139.457 159.904 139.788C173.749 139.457 192.713 139.788 196.311 122.4C201.607 96.7764 170.432 92.2126 185.171 83.0851Z"
        fill="#2657CE" />
    <path
        d="M255.65 152.383V121.915H67.8813V152.383C30.8227 152.383 0.667969 182.507 0.667969 219.527C0.667969 256.547 30.8227 286.67 67.8813 286.67C71.1609 286.67 74.3895 286.428 77.5543 285.969C90.8643 312.434 116.31 331.735 146.605 336.592V412.021H120.381C106.816 412.021 95.8156 423.01 95.8156 436.561H146.592V437.135H176.62V436.561H227.397C227.397 423.01 216.396 412.021 202.831 412.021H176.607V336.592C206.915 331.735 232.373 312.409 245.671 285.931C248.925 286.415 252.255 286.67 255.637 286.67C292.696 286.67 322.85 256.547 322.85 219.527C322.863 182.507 292.708 152.383 255.65 152.383ZM67.8813 266.274C42.0781 266.274 21.0859 245.303 21.0859 219.527C21.0859 193.75 42.0781 172.78 67.8813 172.78V236.443C67.6899 238.891 67.5623 241.351 67.5623 243.837C67.5623 251.55 68.5066 259.033 70.2677 266.197C69.4765 266.248 68.6725 266.274 67.8813 266.274ZM255.65 266.274C254.744 266.274 253.851 266.235 252.957 266.184C254.706 259.02 255.65 251.55 255.65 243.837V172.78C281.453 172.78 302.445 193.75 302.445 219.527C302.445 245.303 281.453 266.274 255.65 266.274Z"
        fill="#FFC341" />
</svg>