<svg width="245" height="236" viewBox="0 0 245 236" fill="none" xmlns="http://www.w3.org/2000/svg">
    <path d="M244.198 16.3684H53.2773V235.277H244.198V16.3684Z" fill="#2657CE" />
    <path d="M244.198 13.551H53.2773V47.6264H244.198V13.551Z" fill="#F05757" />
    <path d="M244.198 47.9961H53.2773V62.5288H244.198V47.9961Z" fill="#5880E1" />
    <path
        d="M78.1113 34.9422C74.066 34.9422 70.748 31.6277 70.748 27.5866V7.35559C70.748 3.31448 74.066 0 78.1113 0C82.1566 0 85.4745 3.31448 85.4745 7.35559V27.5866C85.4745 31.6277 82.1693 34.9422 78.1113 34.9422Z"
        fill="#383A45" />
    <path
        d="M191.495 186.392H23.1361C10.3621 186.392 0 176.04 0 163.28C0 150.519 10.3621 140.167 23.1361 140.167H191.495V186.392Z"
        fill="#FF5954" />
    <path d="M191.432 147.995H16.8965V178.565H191.432V147.995Z" fill="#FFFAEF" />
    <path d="M191.535 147.167H17V164.059H191.535V147.167Z" fill="#FFC341" />
    <path
        d="M191.93 232.077H23.5716C10.7977 232.077 0.435547 221.726 0.435547 208.965C0.435547 196.204 10.7977 185.853 23.5716 185.853H191.93V232.077Z"
        fill="#FFC341" />
    <path d="M45.8526 185.866H27.6934V232.383H45.8526V185.866Z" fill="#605575" />
    <path d="M180.075 185.866H161.916V232.383H180.075V185.866Z" fill="#1C46AE" />
    <path d="M145.9 194.101H59.1621V220.515H145.9V194.101Z" fill="#1C46AE" />
    <path
        d="M167.854 80.0957C167.854 80.0957 178.854 81.651 186.128 91.059L179.39 97.5095C179.39 97.5095 168.236 93.5958 168.236 90.702C168.236 89.5802 167.854 80.0957 167.854 80.0957Z"
        fill="#D54A41" />
    <path
        d="M170.826 71.682C171.082 71.2358 171.515 69.6041 174.157 70.5729C176.799 71.5545 176.977 67.5899 177.513 67.9851C178.049 68.3675 178.19 70.3944 177.054 71.274C175.918 72.1537 171.796 72.2812 172.217 74.4483C172.638 76.6155 192.814 90.5363 191.117 94.3734C189.419 98.2106 185.387 98.8607 181.98 96.2219C178.547 93.583 167.419 77.6863 170.826 71.682Z"
        fill="#FFD2B2" />
    <path
        d="M159.685 64.2371C159.685 64.2371 159.558 60.5912 157.861 60.9482C156.163 61.2924 154.938 64.8745 155.844 66.1876C156.75 67.5006 159.724 67.2839 159.685 64.2371Z"
        fill="#FFD2B2" />
    <path
        d="M207.094 162.945L207.821 168.975C208.804 168.975 219.345 168.312 219.447 167.662C219.561 166.999 211.33 165.966 211.33 165.966C211.33 165.966 211.369 163.404 211.216 163.06C211.088 162.741 207.094 162.945 207.094 162.945Z"
        fill="#383A45" />
    <path
        d="M191.179 173.207L189.584 179.071C190.503 179.441 200.508 182.781 200.852 182.22C201.197 181.646 193.961 177.605 193.961 177.605C193.961 177.605 194.956 175.247 194.956 174.877C194.956 174.52 191.179 173.207 191.179 173.207Z"
        fill="#383A45" />
    <path
        d="M160.947 79.4582C160.947 79.4582 153.176 78.9738 149.284 81.8803C145.391 84.7869 146.616 140.853 146.616 140.853L171.641 135.027C171.641 135.027 173.338 83.3336 170.186 81.1537C167.022 78.9738 160.947 79.4582 160.947 79.4582Z"
        fill="#D54A41" />
    <path
        d="M146.617 133.318C146.617 133.318 187.67 100.072 201.516 114.63C215.362 129.188 211.712 165.099 211.712 165.099H205.88C205.88 165.099 203.698 124.331 194.217 122.151C184.748 119.971 174.858 131.699 174.858 131.699C174.858 131.699 189.367 128.704 197.381 136.225C202.983 141.477 195.684 176.751 195.684 176.751H189.852C189.852 176.751 194.485 140.61 186.343 140.84C178.201 141.082 146.617 140.84 146.617 140.84V133.318Z"
        fill="#1C46AE" />
    <path d="M125 134.695L203.966 76.8448L227.026 70.3943L211.483 88.5857L131.317 146.819L125 134.695Z"
        fill="#FFEFE1" />
    <path
        d="M203.966 77.1675L200.865 83.3247L207.093 83.7709L206.123 88.5387L211.483 88.9084L131.406 148.199L125 135.018L203.966 77.1675Z"
        fill="#FFC341" />
    <path d="M214.303 73.951L218.846 79.968L227.026 70.3943L214.303 73.951Z" fill="#383A45" />
    <path
        d="M140.506 101.984C140.506 101.984 138.758 121.909 143.377 122.075C147.997 122.24 163.846 113.61 165.391 113.317C167.968 112.832 170.61 114.744 170.878 114.528C171.146 114.311 170.559 110.946 165.02 110.13C160.465 109.454 148.495 114.311 147.589 112.361C146.683 110.41 150.434 81.8801 150.434 81.8801C150.434 81.8801 140.174 85.2711 140.506 101.984Z"
        fill="#FFD2B2" />
    <path
        d="M137.762 99.1029C137.762 99.1029 147.524 103.501 148.889 101.984C150.255 100.467 154.798 79.8152 154.798 79.8152C154.798 79.8152 141.858 79.9682 137.762 99.1029Z"
        fill="#D54A41" />
    <path
        d="M170.187 55.8361C170.187 55.8361 174.487 70.0884 168.426 71.7839C162.351 73.4794 163.461 67.0544 163.704 68.2654C163.946 69.4765 165.49 79.4709 165.49 79.4709C165.49 79.4709 162.415 83.3846 156.621 79.9936C155.703 79.4582 159.097 63.8546 159.799 55.9254C160.092 52.4834 167.992 51.7568 170.187 55.8361Z"
        fill="#FFD2B2" />
    <path
        d="M139.675 69.2215C143.185 63.5996 149.323 66.2385 149.45 60.9098C149.578 55.5812 155.627 47.5244 166.474 50.6349C171.668 52.1264 171.463 55.5047 166.64 55.3899C161.816 55.2752 161.65 59.0231 161.254 60.9225C160.859 62.822 159.608 64.9509 159.277 63.9438C158.013 60.1067 156.456 62.0699 156.456 62.0699C156.456 62.0699 154.606 65.0912 156.456 65.958C158.307 66.8249 159.034 65.7796 159.277 67.0416C159.506 68.3037 160.846 75.9142 155.563 76.1309C150.28 76.3477 152.079 79.5474 146.286 80.7457C140.492 81.944 136.485 74.3462 139.675 69.2215Z"
        fill="#0D1333" />
</svg>