<svg width="88" height="160" viewBox="0 0 88 160" fill="none" xmlns="http://www.w3.org/2000/svg">
    <path
        d="M75.1582 100.523L75.7708 106.566C76.7534 106.578 87.2941 106.119 87.4217 105.469C87.5493 104.819 79.3311 103.621 79.3311 103.621C79.3311 103.621 79.4205 101.071 79.2801 100.714C79.1525 100.395 75.1582 100.523 75.1582 100.523Z"
        fill="#0D1333" />
    <path
        d="M53.6801 150.725L52.4551 156.678C53.3866 156.997 63.5829 159.712 63.9019 159.126C64.2209 158.539 56.7429 154.931 56.7429 154.931C56.7429 154.931 57.5979 152.522 57.5596 152.14C57.534 151.795 53.6801 150.725 53.6801 150.725Z"
        fill="#0D1333" />
    <path
        d="M34.8702 75.9832C34.8702 75.9832 50.5538 45.49 68.5854 47.619C86.617 49.7479 81.2828 101.033 81.2828 101.033H74.2131C74.2131 101.033 72.6818 63.401 66.5181 63.4902C60.3544 63.5795 39.7578 92.3644 39.7578 92.3644C39.7578 92.3644 66.5946 90.0825 70.1933 108.35C74.5704 130.557 59.257 153.478 59.257 153.478L50.6049 153.147C50.6049 153.147 67.1051 114.38 57.8022 108.707C43.4841 99.975 15.9071 115.668 4.9707 95.0797L34.8702 75.9832Z"
        fill="#2657CE" />
    <path
        d="M14.7716 35.2916C14.7716 35.2916 34.3218 42.5962 44.3138 38.4148C54.3058 34.2335 65.574 13.569 71.9546 13.3268C78.3352 13.0846 78.5777 10.8154 78.5777 10.8154C78.5777 10.8154 78.08 16.5138 73.9326 16.7305C69.7852 16.96 64.8466 40.6585 48.8696 46.9942C32.8925 53.33 16.2647 48.2308 16.2647 48.2308C16.2647 48.2308 12.5384 37.9304 14.7716 35.2916Z"
        fill="#FFD2B2" />
    <path
        d="M23.4492 34.4501C23.4492 34.4501 -10.3553 22.0591 4.99642 95.0796C4.99642 95.0796 40.1153 83.8741 34.8704 75.9831C31.2207 70.4887 29.8298 74.1729 29.1024 65.3003C28.375 56.4277 48.3718 55.3441 23.4492 34.4501Z"
        fill="#D54A41" />
    <path
        d="M8.83731 6.17515C9.00321 5.69073 14.8351 -3.14363 24.2018 2.64396C28.145 5.09158 28.2088 9.73184 33.0581 10.9302C37.9074 12.1285 44.9771 7.4627 47.491 15.4939C50.005 23.5252 47.1337 25.7178 51.4853 26.6102C55.8368 27.5153 59.142 26.9671 58.0828 33.1499C56.5643 42.0353 42.9353 42.2902 41.2636 37.242C37.0396 24.4685 29.8423 39.5876 26.1926 28.2292C24.355 22.4926 0.070354 31.3142 8.83731 6.17515Z"
        fill="#0D1333" />
    <path
        d="M20.3615 18.681C20.3615 18.681 22.1864 15.392 23.8836 15.7362C25.5808 16.0804 25.1087 19.3184 24.2026 20.6314C23.2838 21.9445 20.336 21.715 20.3615 18.681Z"
        fill="#FFD2B2" />
    <path
        d="M8.05895 13.3778C8.05895 13.3778 5.55777 24.5323 11.6321 26.2277C17.7064 27.9232 16.5962 21.4982 16.3537 22.7093C16.1113 23.9204 14.5672 33.9148 14.5672 33.9148C14.5672 33.9148 17.6426 37.8284 23.4362 34.4375C24.355 33.902 20.9606 18.2985 20.2587 10.3692C19.9652 6.92727 10.139 6.26437 8.05895 13.3778Z"
        fill="#FFD2B2" />
    <path
        d="M18.3837 47.5169C18.3837 47.5169 36.9768 57.0014 47.3772 53.9929C57.7776 50.9844 71.3428 31.7349 77.6979 32.2321C84.0657 32.7165 84.5634 30.4856 84.5634 30.4856C84.5634 30.4856 83.4149 36.082 79.2675 35.8398C75.1201 35.5975 67.5017 58.5694 50.8993 63.044C34.3097 67.5185 18.3582 60.5454 18.3582 60.5454C18.3582 60.5454 15.8698 49.8881 18.3837 47.5169Z"
        fill="#FFD2B2" />
    <path
        d="M23.449 34.4502C23.449 34.4502 31.999 39.4729 33.3134 39.5494C34.6278 39.6386 33.3134 48.4347 33.3134 48.4347C33.3134 48.4347 21.3945 42.5324 23.449 34.4502Z"
        fill="#D54A41" />
    <path
        d="M15.831 44.1898C15.831 44.1898 27.1502 48.5751 27.8776 50.1686C28.6177 51.7621 26.6142 65.2112 23.5898 64.3699C20.5654 63.5285 10.3564 61.8203 10.1523 55.2423C9.94808 48.6516 12.0537 42.6473 15.831 44.1898Z"
        fill="#D54A41" />
</svg>