<svg width="60" height="198" viewBox="0 0 60 198" fill="none" xmlns="http://www.w3.org/2000/svg">
    <path
        d="M3.10037 76.5184C3.10037 76.5184 -22.8304 88.9987 -43.7971 80.3428C-64.6362 71.7379 -67.0863 71.8272 -70.2766 73.2167C-73.4669 74.6062 -65.5422 65.6826 -49.5396 73.2167C-44.6393 75.5241 -18.7979 75.5623 1.26276 61.718C1.25001 61.718 7.7965 72.7068 3.10037 76.5184Z"
        fill="#E57373" />
    <path
        d="M50.4194 4.79826C50.4194 4.79826 53.9543 2.52912 56.4938 3.03904C59.0332 3.54896 59.4544 0.680664 59.4544 0.680664C59.4544 0.680664 60.0031 3.80392 56.4938 4.79826C52.9717 5.77986 50.1004 5.1807 50.4194 12.3323C50.7385 19.484 66.4092 61.5523 32.8855 70.8201C32.8855 70.8201 26.4921 59.2577 27.4492 56.4149C28.4063 53.5848 43.12 46.14 43.4263 33.7617C43.7198 21.4089 44.3451 6.55748 50.4194 4.79826Z"
        fill="#FFD2B2" />
    <path
        d="M-6.09954 108.337C-6.09954 108.337 -12.8885 125.241 -30.8308 127.255C-48.7731 129.27 -62.67 110.199 -62.67 110.199L-69.2676 114.354C-69.2676 114.354 -60.4368 137.135 -36.8413 142.234C-13.2458 147.334 3.31824 129.537 3.31824 129.537C3.31824 129.537 8.29511 132.214 6.38093 152.573C3.98182 178.133 1.59547 192.869 1.59547 192.869H9.48191C9.48191 192.869 20.8011 165.793 22.6898 146.403C24.8975 123.813 21.0563 112.277 21.0563 112.277L-6.09954 108.337Z"
        fill="#0D1333" />
    <path
        d="M3.38086 191.76L3.89131 197.816C4.87392 197.854 15.4275 197.561 15.5551 196.911C15.6827 196.26 7.50274 194.922 7.50274 194.922C7.50274 194.922 7.63035 192.372 7.48997 192.015C7.38788 191.697 3.38086 191.76 3.38086 191.76Z"
        fill="#0D1333" />
    <path
        d="M-10.043 114.979C-10.043 114.979 0.306379 88.3487 0.485037 67.493C0.62541 52.1954 31.5841 55.2039 32.6433 62.0114C35.0169 77.1815 23.8253 127.039 23.8253 127.039L-10.043 114.979Z"
        fill="#FFC341" />
    <path
        d="M22.0133 56.8485C22.0133 56.8485 34.4682 49.6204 35.068 49.2634C35.6678 48.9065 48.429 61.731 48.429 61.731C48.429 61.731 36.8546 73.6504 30.6654 74.1858C24.4762 74.7212 18.9251 57.2947 22.0133 56.8485Z"
        fill="#FFC341" />
    <path
        d="M-18.1074 69.0099C-18.1074 69.0099 -17.0355 82.3826 -15.9763 83.0837C-14.9044 83.7849 3.84188 79.5143 5.36046 77.8443C6.87905 76.1743 8.97188 58.0466 7.97651 58.5183C6.98113 58.99 -16.5761 68.245 -18.1074 69.0099Z"
        fill="#FFC341" />
    <path
        d="M16.4237 42.8766C16.4237 42.8766 16.2961 39.2306 14.5989 39.5876C12.9016 39.9318 11.6766 43.514 12.5826 44.827C13.5014 46.14 16.4493 45.9106 16.4237 42.8766Z"
        fill="#FFD2B2" />
    <path
        d="M27.7054 38.6569C27.7054 38.6569 31.2147 48.7278 25.1404 50.4233C19.0661 52.1188 20.1763 45.6938 20.4187 46.9049C20.6612 48.1159 22.2053 58.1104 22.2053 58.1104C22.2053 58.1104 19.1299 62.024 13.3363 58.633C12.4175 58.0976 15.812 42.4941 16.5138 34.5648C16.8201 31.1229 25.5232 34.5776 27.7054 38.6569Z"
        fill="#FFD2B2" />
    <path
        d="M17.0996 31.467C17.0996 31.467 18.465 26.7502 21.3746 27.8593C24.2842 28.9684 23.8886 30.5619 25.9942 29.6695C28.0998 28.7644 30.2564 32.0789 29.1462 34.1823C27.6787 36.9486 27.7042 37.79 23.6844 36.8849C19.6646 35.9798 17.559 34.5775 16.653 36.1837C15.7469 37.79 17.3548 41.8948 16.1553 42.4048C14.9557 42.9019 15.045 39.7022 14.1518 40.9005C13.2457 42.0988 11.842 45.1838 14.2538 44.7886C16.6657 44.4062 14.8791 47.6187 13.9603 47.5167C13.0415 47.4147 8.85585 43.9855 9.32802 39.3962C9.63429 36.4897 12.6842 37.994 11.842 35.8905C10.9997 33.7744 12.9267 29.2616 17.0996 31.467Z"
        fill="#0D1333" />
</svg>