<svg width="15" height="15" viewBox="0 0 15 15" fill="none" xmlns="http://www.w3.org/2000/svg">
    <path
        d="M14.8541 6.03113H14.25V6H7.5V9H11.7386C11.1203 10.7464 9.45862 12 7.5 12C5.01487 12 3 9.98512 3 7.5C3 5.01487 5.01487 3 7.5 3C8.64713 3 9.69075 3.43275 10.4854 4.13962L12.6068 2.01825C11.2673 0.769875 9.4755 0 7.5 0C3.35812 0 0 3.35812 0 7.5C0 11.6419 3.35812 15 7.5 15C11.6419 15 15 11.6419 15 7.5C15 6.99713 14.9482 6.50625 14.8541 6.03113Z"
        fill="#FFC107" />
    <path
        d="M0.864761 4.00912L3.32889 5.81625C3.99564 4.1655 5.61039 3 7.50001 3C8.64714 3 9.69076 3.43275 10.4854 4.13962L12.6068 2.01825C11.2673 0.769875 9.47551 0 7.50001 0C4.61926 0 2.12101 1.62637 0.864761 4.00912Z"
        fill="#FF3D00" />
    <path
        d="M7.5 15C9.43725 15 11.1975 14.2586 12.5284 13.053L10.2071 11.0887C9.42883 11.6806 8.4778 12.0008 7.5 12C5.54925 12 3.89288 10.7561 3.26888 9.02025L0.823128 10.9046C2.06438 13.3335 4.58513 15 7.5 15Z"
        fill="#4CAF50" />
    <path
        d="M14.8541 6.03113H14.25V6H7.5V9H11.7386C11.4428 9.83116 10.91 10.5574 10.206 11.0891L10.2071 11.0884L12.5284 13.0526C12.3641 13.2019 15 11.25 15 7.5C15 6.99713 14.9482 6.50625 14.8541 6.03113Z"
        fill="#1976D2" />
</svg>