<svg xmlns="http://www.w3.org/2000/svg" width="25.984" height="25.984" viewBox="0 0 25.984 25.984">
    <g id="paint_2_" data-name="paint (2)" transform="translate(0 0)">
        <path id="Path_5051" data-name="Path 5051"
            d="M7.663,21.365a3.036,3.036,0,0,0-.969-2.224v0c.054-.745.1-1.531.131-2.342a4.979,4.979,0,0,1,3.288,1.762A3.678,3.678,0,0,1,10.62,21.4a2.292,2.292,0,0,0,1.74,2.8,11.639,11.639,0,0,0,2.2.212A11.5,11.5,0,0,0,25.984,12.992c0-6.426-5.587-11.668-11.423-11.459A13.294,13.294,0,0,0,6.53,4.948q-.038-.353-.079-.688a18.336,18.336,0,0,0-.509-2.748C5.809,1.06,5.5,0,4.618,0S3.428,1.06,3.3,1.512A18.342,18.342,0,0,0,2.786,4.26a74.619,74.619,0,0,0-.452,8.732c0,2.147.072,4.272.207,6.145v0a3.036,3.036,0,0,0-.969,2.224v1.573A1.569,1.569,0,0,1,0,24.461v1.522H3.1a4.609,4.609,0,0,0,4.567-4.618ZM14.615,3.055c4.9-.176,9.848,4.3,9.846,9.937A9.958,9.958,0,0,1,12.647,22.7a.777.777,0,0,1-.541-.97,5.143,5.143,0,0,0-.752-4.057,6.557,6.557,0,0,0-4.479-2.417c.018-.746.027-2.322.027-2.351a2.284,2.284,0,1,0-.046-2.927C6.822,8.9,6.77,7.861,6.7,6.891a12.044,12.044,0,0,1,7.914-3.836ZM7.9,11.218a.761.761,0,1,1,.538.932A.761.761,0,0,1,7.9,11.218ZM4.222,5.1a24.372,24.372,0,0,1,.4-2.615,24.372,24.372,0,0,1,.4,2.615,77.5,77.5,0,0,1,.365,7.894q0,.381,0,.761H3.86q0-.38,0-.761A77.5,77.5,0,0,1,4.222,5.1ZM3.885,15.275H5.352c-.026,1.075-.07,2.121-.132,3.105a3.048,3.048,0,0,0-1.2,0c-.062-.985-.106-2.03-.132-3.105ZM3.1,22.939V21.365a1.522,1.522,0,0,1,3.045,0,3.074,3.074,0,0,1-3.045,3.1H2.677A2.963,2.963,0,0,0,3.1,22.939Z"
            transform="translate(0 0)" fill="#1c1c1c" />
        <path id="Path_5052" data-name="Path 5052"
            d="M329.741,130.065a2.284,2.284,0,1,0-3.23,0A2.282,2.282,0,0,0,329.741,130.065Zm-2.153-2.153a.761.761,0,1,1,0,1.077A.762.762,0,0,1,327.588,127.912Z"
            transform="translate(-309.306 -119.765)" fill="#1c1c1c" />
        <path id="Path_5053" data-name="Path 5053"
            d="M212.812,99.574a2.284,2.284,0,1,0-2.8-1.615A2.286,2.286,0,0,0,212.812,99.574Zm-.788-2.941a.761.761,0,1,1-.538.932A.762.762,0,0,1,212.024,96.633Z"
            transform="translate(-199.283 -90.259)" fill="#1c1c1c" />
        <path id="Path_5054" data-name="Path 5054"
            d="M272.131,329.773a2.284,2.284,0,1,0,1.615-2.8A2.286,2.286,0,0,0,272.131,329.773Zm2.009-1.326a.761.761,0,1,1-.538.932A.761.761,0,0,1,274.14,328.447Z"
            transform="translate(-258.246 -310.308)" fill="#1c1c1c" />
        <path id="Path_5055" data-name="Path 5055"
            d="M356.984,243.738a2.284,2.284,0,1,0,2.8-1.615A2.286,2.286,0,0,0,356.984,243.738Zm2.941.788a.761.761,0,1,1-.538-.932A.761.761,0,0,1,359.925,244.526Z"
            transform="translate(-338.793 -229.761)" fill="#1c1c1c" />
    </g>
</svg>