<svg xmlns="http://www.w3.org/2000/svg" width="23.231" height="21.385" viewBox="0 0 23.231 21.385">
    <g id="_023-burger" data-name="023-burger" transform="translate(0.15 0.149)">
        <path id="Path_5056" data-name="Path 5056"
            d="M2.448,9.923H20.485a2.45,2.45,0,0,0,2.447-2.447A7.483,7.483,0,0,0,15.457,0H7.476A7.483,7.483,0,0,0,0,7.476,2.45,2.45,0,0,0,2.448,9.923ZM7.476,1.344h7.981a6.138,6.138,0,0,1,6.131,6.131,1.105,1.105,0,0,1-1.1,1.1H2.448a1.1,1.1,0,0,1-1.1-1.1A6.138,6.138,0,0,1,7.476,1.344Zm0,0"
            transform="translate(-0.001)" fill="#1c1c1c" stroke="#1c1c1c" stroke-width="0.3" />
        <path id="Path_5057" data-name="Path 5057"
            d="M22.259,247.988H.672a.672.672,0,0,0,0,1.344H22.259a.672.672,0,0,0,0-1.344Zm0,0"
            transform="translate(0 -236.881)" fill="#1c1c1c" stroke="#1c1c1c" stroke-width="0.3" />
        <path id="Path_5058" data-name="Path 5058"
            d="M163.883,85.464a.672.672,0,0,0,.672-.672V83.442a.672.672,0,0,0-1.344,0v1.351A.672.672,0,0,0,163.883,85.464Zm0,0"
            transform="translate(-155.901 -79.062)" fill="#1c1c1c" stroke="#1c1c1c" stroke-width="0.3" />
        <path id="Path_5059" data-name="Path 5059"
            d="M241.672,85.464a.672.672,0,0,0,.672-.672V83.442a.672.672,0,0,0-1.344,0v1.351A.672.672,0,0,0,241.672,85.464Zm0,0"
            transform="translate(-230.206 -79.062)" fill="#1c1c1c" stroke="#1c1c1c" stroke-width="0.3" />
        <path id="Path_5060" data-name="Path 5060"
            d="M318.836,85.464a.672.672,0,0,0,.672-.672V83.442a.672.672,0,0,0-1.344,0v1.351A.672.672,0,0,0,318.836,85.464Zm0,0"
            transform="translate(-303.915 -79.062)" fill="#1c1c1c" stroke="#1c1c1c" stroke-width="0.3" />
        <path id="Path_5061" data-name="Path 5061"
            d="M20.82,305.992H19.713a.942.942,0,0,0-.587.206l-2.419,1.935L14.288,306.2a.942.942,0,0,0-.587-.206H2.111A2.113,2.113,0,0,0,0,308.1v1.266a4.008,4.008,0,0,0,4,4H18.928a4.008,4.008,0,0,0,4-4V308.1a2.113,2.113,0,0,0-2.111-2.111Zm.767,3.378a2.663,2.663,0,0,1-2.66,2.66H4a2.663,2.663,0,0,1-2.66-2.66V308.1a.768.768,0,0,1,.767-.768H13.559l2.561,2.049a.933.933,0,0,0,1.173,0l2.561-2.049h.965a.768.768,0,0,1,.767.768Zm0,0"
            transform="translate(0 -292.287)" fill="#1c1c1c" stroke="#1c1c1c" stroke-width="0.3" />
    </g>
</svg>