<svg xmlns="http://www.w3.org/2000/svg" xmlns:xlink="http://www.w3.org/1999/xlink" width="336.97" height="502.928"
    viewBox="0 0 336.97 502.928">
    <defs>
        <filter id="body" x="0" y="7.524" width="336.97" height="495.404" filterUnits="userSpaceOnUse">
            <feOffset input="SourceAlpha" />
            <feGaussianBlur stdDeviation="30" result="blur" />
            <feFlood flood-opacity="0.078" />
            <feComposite operator="in" in2="blur" />
            <feComposite in="SourceGraphic" />
        </filter>
    </defs>
    <circle id="Ellipse_23" data-name="Ellipse 23" cx="165" cy="165" r="165" transform="translate(6)" fill="#f5f6fa" />
    <path id="Path_5097" data-name="Path 5097"
        d="M4493.155,253.713l-1.354.382s-3.021,1.215-4.131-1.562-3.021-8.262-3.021-8.262-1.6-2.951,2.118-4.582,14.893-5.624,14.893-5.624a2.965,2.965,0,0,1,4.026,1.493c1.389,2.777,4.027,9.512,4.027,9.512s.9,2.187-1.806,3.333-9.373,3.471-9.373,3.471l-3.333,5.52s-.833,1.875-1.388-1.041S4493.155,253.713,4493.155,253.713Z"
        transform="translate(-2830.014 -3277.91) rotate(45)" fill="#fb5954" />
    <g transform="matrix(1, 0, 0, 1, 0, 0)" filter="url(#body)">
        <g id="body-2" data-name="body" transform="translate(90 1082.52)" fill="none">
            <path
                d="M23.417-669.6A21.954,21.954,0,0,1,1.463-691.549V-868.644A1.464,1.464,0,0,1,0-870.108v-19.759a1.464,1.464,0,0,1,1.463-1.463v-5.855A1.464,1.464,0,0,1,0-898.648v-19.758a1.464,1.464,0,0,1,1.463-1.464v-10.977A1.464,1.464,0,0,1,0-932.31v-8.782a1.464,1.464,0,0,1,1.463-1.464v-20.49A21.954,21.954,0,0,1,23.417-985H133.553a21.954,21.954,0,0,1,21.954,21.954v50.86a1.464,1.464,0,0,1,1.464,1.464v32.931a1.464,1.464,0,0,1-1.464,1.464v184.779A21.954,21.954,0,0,1,133.553-669.6Z"
                stroke="none" />
            <path
                d="M 133.5529174804688 -671.5955810546875 C 136.2475891113281 -671.5955810546875 138.8605499267578 -672.1228637695312 141.3192901611328 -673.162841796875 C 143.6951293945312 -674.1676635742188 145.8292541503906 -675.606689453125 147.6624298095703 -677.4398193359375 C 149.4955444335938 -679.2730102539062 150.9345550537109 -681.4071044921875 151.9394683837891 -683.782958984375 C 152.9793853759766 -686.2416381835938 153.5066680908203 -688.8546142578125 153.5066680908203 -691.5492553710938 L 153.5066680908203 -876.327880859375 L 153.5066680908203 -878.327880859375 L 154.9704284667969 -878.327880859375 L 154.9704284667969 -910.1859130859375 L 153.5066680908203 -910.1859130859375 L 153.5066680908203 -912.1859130859375 L 153.5066680908203 -963.0459594726562 C 153.5066680908203 -965.7405395507812 152.9793853759766 -968.353515625 151.9394683837891 -970.812255859375 C 150.9345550537109 -973.1881103515625 149.4955444335938 -975.3222045898438 147.6624298095703 -977.1553955078125 C 145.8292541503906 -978.9885864257812 143.6951293945312 -980.4275512695312 141.3192596435547 -981.4324340820312 C 138.8605499267578 -982.472412109375 136.2475891113281 -982.9996948242188 133.5529174804688 -982.9996948242188 L 23.4174633026123 -982.9996948242188 C 20.72279739379883 -982.9996948242188 18.10983848571777 -982.472412109375 15.65108966827393 -981.4324340820312 C 13.27521419525146 -980.4275512695312 11.14104747772217 -978.988525390625 9.307839393615723 -977.1553344726562 C 7.474672794342041 -975.3222045898438 6.035630702972412 -973.1880493164062 5.03071403503418 -970.812255859375 C 3.990755796432495 -968.353515625 3.463464260101318 -965.7405395507812 3.463464260101318 -963.0459594726562 L 3.463464260101318 -942.5557861328125 L 3.463464260101318 -940.5557861328125 L 2.000005960464478 -940.5557861328125 L 2.000005960464478 -932.8468017578125 L 3.463464260101318 -932.8468017578125 L 3.463464260101318 -930.8468017578125 L 3.463464260101318 -919.8699340820312 L 3.463464260101318 -917.8699340820312 L 2.000005960464478 -917.8699340820312 L 2.000005960464478 -899.184326171875 L 3.463464260101318 -899.184326171875 L 3.463464260101318 -897.184326171875 L 3.463464260101318 -891.3297729492188 L 3.463464260101318 -889.3297729492188 L 2.000005960464478 -889.3297729492188 L 2.000005960464478 -870.64404296875 L 3.463464260101318 -870.64404296875 L 3.463464260101318 -868.64404296875 L 3.463464260101318 -691.5492553710938 C 3.463464260101318 -688.8546142578125 3.990755796432495 -686.2416381835938 5.03071403503418 -683.782958984375 C 6.035630702972412 -681.4071044921875 7.474672794342041 -679.2730102539062 9.307839393615723 -677.4398803710938 C 11.14104747772217 -675.606689453125 13.27521419525146 -674.1676635742188 15.65108966827393 -673.162841796875 C 18.10983848571777 -672.1228637695312 20.72279739379883 -671.5955810546875 23.4174633026123 -671.5955810546875 L 133.5529174804688 -671.5955810546875 M 133.5529174804688 -669.5955810546875 L 23.4174633026123 -669.5955810546875 C 11.29263114929199 -669.5955810546875 1.463464260101318 -679.4244995117188 1.463464260101318 -691.5492553710938 L 1.463464260101318 -868.64404296875 C 0.655339241027832 -868.64404296875 5.900064934394322e-06 -869.2994384765625 5.900064934394322e-06 -870.1077880859375 L 5.900064934394322e-06 -889.8663330078125 C 5.900064934394322e-06 -890.6744995117188 0.655339241027832 -891.3297729492188 1.463464260101318 -891.3297729492188 L 1.463464260101318 -897.184326171875 C 0.655339241027832 -897.184326171875 5.900064934394322e-06 -897.8395385742188 5.900064934394322e-06 -898.647705078125 L 5.900064934394322e-06 -918.4061279296875 C 5.900064934394322e-06 -919.2144775390625 0.655339241027832 -919.8699340820312 1.463464260101318 -919.8699340820312 L 1.463464260101318 -930.8468017578125 C 0.655339241027832 -930.8468017578125 5.900064934394322e-06 -931.502197265625 5.900064934394322e-06 -932.3102416992188 L 5.900064934394322e-06 -941.0919799804688 C 5.900064934394322e-06 -941.900390625 0.655339241027832 -942.5557861328125 1.463464260101318 -942.5557861328125 L 1.463464260101318 -963.0459594726562 C 1.463464260101318 -975.1707153320312 11.29263114929199 -984.9996948242188 23.4174633026123 -984.9996948242188 L 133.5529174804688 -984.9996948242188 C 145.6777954101562 -984.9996948242188 155.5066680908203 -975.1707153320312 155.5066680908203 -963.0459594726562 L 155.5066680908203 -912.1859130859375 C 156.3150939941406 -912.1859130859375 156.9704284667969 -911.530517578125 156.9704284667969 -910.722412109375 L 156.9704284667969 -877.7916870117188 C 156.9704284667969 -876.983154296875 156.3150939941406 -876.327880859375 155.5066680908203 -876.327880859375 L 155.5066680908203 -691.5492553710938 C 155.5066680908203 -679.4244995117188 145.6777954101562 -669.5955810546875 133.5529174804688 -669.5955810546875 Z"
                stroke="none" fill="#1c1c1c" />
        </g>
    </g>
    <g id="screen" transform="translate(99.481 34.275)" fill="none">
        <path
            d="M123.569,370.139H14.754a14.761,14.761,0,0,1-13.595-8.97A14.537,14.537,0,0,1,0,355.453V86.687A14.608,14.608,0,0,1,4.321,76.3,14.742,14.742,0,0,1,14.754,72H28.771a1.843,1.843,0,0,1,1.844,1.8v1.134a8.034,8.034,0,0,0,2.377,5.712,8.108,8.108,0,0,0,5.738,2.366h61.6a7.381,7.381,0,0,0,6.8-4.485,7.269,7.269,0,0,0,.58-2.858V73.836A1.842,1.842,0,0,1,109.551,72h14.019a14.761,14.761,0,0,1,13.595,8.97,14.536,14.536,0,0,1,1.16,5.717V355.453A14.607,14.607,0,0,1,134,365.837a14.743,14.743,0,0,1-10.433,4.3Z"
            stroke="none" />
        <path
            d="M 123.5692443847656 368.1390686035156 C 125.2930145263672 368.1390686035156 126.9642028808594 367.8034362792969 128.5364685058594 367.1415100097656 C 130.0552062988281 366.5022583007812 131.4194030761719 365.5866088867188 132.5912475585938 364.4200439453125 C 133.7627105712891 363.2538757324219 134.6819305419922 361.8970336914062 135.3234405517578 360.3870239257812 C 135.9871215820312 358.8251647949219 136.3236236572266 357.1649780273438 136.3236236572266 355.4525451660156 L 136.3236236572266 86.68686676025391 C 136.3236236572266 84.97432708740234 135.9871215820312 83.31409454345703 135.3233642578125 81.75213623046875 C 134.6818542480469 80.24213409423828 133.7626342773438 78.88524627685547 132.5912475585938 77.71913146972656 C 131.4194030761719 76.55255889892578 130.0551605224609 75.63686370849609 128.5364379882812 74.99748229980469 C 126.964241027832 74.33559417724609 125.2930526733398 74.00001525878906 123.5692443847656 74.00001525878906 L 109.7080535888672 74.00001525878906 L 109.7080535888672 74.93767547607422 L 109.7080535888672 75.67159271240234 C 109.7080535888672 76.93313598632812 109.4594345092773 78.15798187255859 108.9690093994141 79.31221008300781 C 108.4960098266602 80.42532348632812 107.8195495605469 81.42440032958984 106.9583587646484 82.28179168701172 C 106.0977020263672 83.13848114013672 105.0951309204102 83.81124877929688 103.9785079956055 84.28140258789062 C 102.8220138549805 84.76836395263672 101.5948181152344 85.01525115966797 100.3309707641602 85.01525115966797 L 38.73051071166992 85.01525115966797 C 37.36685943603516 85.01525115966797 36.04297256469727 84.7489013671875 34.79570388793945 84.22367095947266 C 33.59124374389648 83.71652221679688 32.50978088378906 82.99079132080078 31.58143424987793 82.06663513183594 C 30.65239715576172 81.14186859130859 29.92270469665527 80.064208984375 29.41258811950684 78.86367034912109 C 28.88378143310547 77.61913299560547 28.61562728881836 76.29813385009766 28.61562728881836 74.93740081787109 L 28.61562728881836 74.00001525878906 L 14.75439643859863 74.00001525878906 C 13.03055000305176 74.00001525878906 11.35939598083496 74.33559417724609 9.787358283996582 74.99748229980469 C 8.268665313720703 75.63686370849609 6.90435791015625 76.55259704589844 5.732434749603271 77.71913146972656 C 4.561203956604004 78.88505554199219 3.641934871673584 80.24198150634766 3.000204086303711 81.75225067138672 C 2.336511850357056 83.31413269042969 2.000011682510376 84.97440338134766 2.000011682510376 86.68686676025391 L 2.000011682510376 355.4525451660156 C 2.000011682510376 357.1649169921875 2.336550235748291 358.8251037597656 3.000242471694946 360.3870849609375 C 3.641896486282349 361.8972473144531 4.561127185821533 363.2540893554688 5.732396602630615 364.4200134277344 C 6.904319286346436 365.5866088867188 8.268549919128418 366.5022583007812 9.787358283996582 367.1416015625 C 11.35943508148193 367.8034362792969 13.03058910369873 368.1390686035156 14.75439643859863 368.1390686035156 L 123.5692443847656 368.1390686035156 M 123.5692443847656 370.1390686035156 L 14.75439643859863 370.1390686035156 C 12.76255035400391 370.1390686035156 10.83028125762939 369.7507019042969 9.01128101348877 368.98486328125 C 7.254281044006348 368.2452392578125 5.676396369934082 367.1862487792969 4.32143497467041 365.8374938964844 C 2.966434955596924 364.4886779785156 1.902627110481262 362.9181213378906 1.159511804580688 361.1692199707031 C 0.3901271522045135 359.3585205078125 1.176570003735833e-05 357.4352416992188 1.176570003735833e-05 355.4525451660156 L 1.176570003735833e-05 86.68686676025391 C 1.176570003735833e-05 84.70409393310547 0.3901271522045135 82.78070831298828 1.159511804580688 80.9700927734375 C 1.902588725090027 79.22129058837891 2.966396331787109 77.65059661865234 4.32143497467041 76.30171203613281 C 5.676511764526367 74.95286560058594 7.254396438598633 73.89386749267578 9.01128101348877 73.1541748046875 C 10.83031940460205 72.38832855224609 12.76258850097656 72.00001525878906 14.75439643859863 72.00001525878906 L 28.7714729309082 72.00001525878906 C 29.25758934020996 72.00001525878906 29.71658897399902 72.18732452392578 30.06401252746582 72.52751922607422 C 30.41105079650879 72.86724853515625 30.60697364807129 73.32017517089844 30.61562728881836 73.80294036865234 L 30.61562728881836 74.93740081787109 C 30.61562728881836 76.02782440185547 30.83016586303711 77.08567047119141 31.25331878662109 78.08152008056641 C 31.66201210021973 79.04340362548828 32.24712753295898 79.90732574462891 32.99239730834961 80.649169921875 C 33.73770523071289 81.39109802246094 34.60558700561523 81.97355651855469 35.57181930541992 82.38040161132812 C 36.57220458984375 82.80167388916016 37.63493347167969 83.01525115966797 38.73051071166992 83.01525115966797 L 100.3309707641602 83.01525115966797 C 101.3266677856445 83.01525115966797 102.292854309082 82.82109832763672 103.202392578125 82.43813323974609 C 104.0809707641602 82.06821441650391 104.8699340820312 81.53867340087891 105.5473937988281 80.86432647705078 C 106.2248229980469 80.18990325927734 106.756706237793 79.40451812744141 107.1283187866211 78.53002166748047 C 107.5129699707031 77.62467193603516 107.7080535888672 76.66297912597656 107.7080535888672 75.67159271240234 L 107.7080535888672 74.93767547607422 L 107.7080535888672 73.83563232421875 C 107.7080535888672 72.82447814941406 108.5345916748047 72.00102233886719 109.5505905151367 72.00001525878906 L 123.5692443847656 72.00001525878906 C 125.5610122680664 72.00001525878906 127.493278503418 72.38832855224609 129.3124389648438 73.1541748046875 C 131.0693969726562 73.89386749267578 132.6472778320312 74.95286560058594 134.0022430419922 76.30171203613281 C 135.3572387695312 77.65059661865234 136.4211730957031 79.22129058837891 137.1641235351562 80.9700927734375 C 137.9335479736328 82.78070831298828 138.3236236572266 84.70409393310547 138.3236236572266 86.68686676025391 L 138.3236236572266 355.4525451660156 C 138.3236236572266 357.4352416992188 137.9335479736328 359.3585205078125 137.1641235351562 361.1692199707031 C 136.4211273193359 362.9181213378906 135.3571624755859 364.4886779785156 134.0022430419922 365.8374938964844 C 132.6473541259766 367.1862487792969 131.0694732666016 368.2452392578125 129.3124389648438 368.98486328125 C 127.4933166503906 369.7507019042969 125.5610504150391 370.1390686035156 123.5692443847656 370.1390686035156 Z"
            stroke="none" />
    </g>
    <g id="screen-2" data-name="screen" transform="translate(99.481 34.275)" fill="none">
        <path
            d="M123.569,370.139H14.754a14.761,14.761,0,0,1-13.595-8.97A14.537,14.537,0,0,1,0,355.453V86.687A14.608,14.608,0,0,1,4.321,76.3,14.742,14.742,0,0,1,14.754,72H28.771a1.843,1.843,0,0,1,1.844,1.8v1.134a8.034,8.034,0,0,0,2.377,5.712,8.108,8.108,0,0,0,5.738,2.366h61.6a7.381,7.381,0,0,0,6.8-4.485,7.269,7.269,0,0,0,.58-2.858V73.836A1.842,1.842,0,0,1,109.551,72h14.019a14.761,14.761,0,0,1,13.595,8.97,14.536,14.536,0,0,1,1.16,5.717V355.453A14.607,14.607,0,0,1,134,365.837a14.743,14.743,0,0,1-10.433,4.3Z"
            stroke="none" />
        <path
            d="M 123.5692443847656 368.1390686035156 C 125.2930145263672 368.1390686035156 126.9642028808594 367.8034362792969 128.5364685058594 367.1415100097656 C 130.0552062988281 366.5022583007812 131.4194030761719 365.5866088867188 132.5912475585938 364.4200439453125 C 133.7627105712891 363.2538757324219 134.6819305419922 361.8970336914062 135.3234405517578 360.3870239257812 C 135.9871215820312 358.8251647949219 136.3236236572266 357.1649780273438 136.3236236572266 355.4525451660156 L 136.3236236572266 86.68686676025391 C 136.3236236572266 84.97432708740234 135.9871215820312 83.31409454345703 135.3233642578125 81.75213623046875 C 134.6818542480469 80.24213409423828 133.7626342773438 78.88524627685547 132.5912475585938 77.71913146972656 C 131.4194030761719 76.55255889892578 130.0551605224609 75.63686370849609 128.5364379882812 74.99748229980469 C 126.964241027832 74.33559417724609 125.2930526733398 74.00001525878906 123.5692443847656 74.00001525878906 L 109.7080535888672 74.00001525878906 L 109.7080535888672 74.93767547607422 L 109.7080535888672 75.67159271240234 C 109.7080535888672 76.93313598632812 109.4594345092773 78.15798187255859 108.9690093994141 79.31221008300781 C 108.4960098266602 80.42532348632812 107.8195495605469 81.42440032958984 106.9583587646484 82.28179168701172 C 106.0977020263672 83.13848114013672 105.0951309204102 83.81124877929688 103.9785079956055 84.28140258789062 C 102.8220138549805 84.76836395263672 101.5948181152344 85.01525115966797 100.3309707641602 85.01525115966797 L 38.73051071166992 85.01525115966797 C 37.36685943603516 85.01525115966797 36.04297256469727 84.7489013671875 34.79570388793945 84.22367095947266 C 33.59124374389648 83.71652221679688 32.50978088378906 82.99079132080078 31.58143424987793 82.06663513183594 C 30.65239715576172 81.14186859130859 29.92270469665527 80.064208984375 29.41258811950684 78.86367034912109 C 28.88378143310547 77.61913299560547 28.61562728881836 76.29813385009766 28.61562728881836 74.93740081787109 L 28.61562728881836 74.00001525878906 L 14.75439643859863 74.00001525878906 C 13.03055000305176 74.00001525878906 11.35939598083496 74.33559417724609 9.787358283996582 74.99748229980469 C 8.268665313720703 75.63686370849609 6.90435791015625 76.55259704589844 5.732434749603271 77.71913146972656 C 4.561203956604004 78.88505554199219 3.641934871673584 80.24198150634766 3.000204086303711 81.75225067138672 C 2.336511850357056 83.31413269042969 2.000011682510376 84.97440338134766 2.000011682510376 86.68686676025391 L 2.000011682510376 355.4525451660156 C 2.000011682510376 357.1649169921875 2.336550235748291 358.8251037597656 3.000242471694946 360.3870849609375 C 3.641896486282349 361.8972473144531 4.561127185821533 363.2540893554688 5.732396602630615 364.4200134277344 C 6.904319286346436 365.5866088867188 8.268549919128418 366.5022583007812 9.787358283996582 367.1416015625 C 11.35943508148193 367.8034362792969 13.03058910369873 368.1390686035156 14.75439643859863 368.1390686035156 L 123.5692443847656 368.1390686035156 M 123.5692443847656 370.1390686035156 L 14.75439643859863 370.1390686035156 C 12.76255035400391 370.1390686035156 10.83028125762939 369.7507019042969 9.01128101348877 368.98486328125 C 7.254281044006348 368.2452392578125 5.676396369934082 367.1862487792969 4.32143497467041 365.8374938964844 C 2.966434955596924 364.4886779785156 1.902627110481262 362.9181213378906 1.159511804580688 361.1692199707031 C 0.3901271522045135 359.3585205078125 1.176570003735833e-05 357.4352416992188 1.176570003735833e-05 355.4525451660156 L 1.176570003735833e-05 86.68686676025391 C 1.176570003735833e-05 84.70409393310547 0.3901271522045135 82.78070831298828 1.159511804580688 80.9700927734375 C 1.902588725090027 79.22129058837891 2.966396331787109 77.65059661865234 4.32143497467041 76.30171203613281 C 5.676511764526367 74.95286560058594 7.254396438598633 73.89386749267578 9.01128101348877 73.1541748046875 C 10.83031940460205 72.38832855224609 12.76258850097656 72.00001525878906 14.75439643859863 72.00001525878906 L 28.7714729309082 72.00001525878906 C 29.25758934020996 72.00001525878906 29.71658897399902 72.18732452392578 30.06401252746582 72.52751922607422 C 30.41105079650879 72.86724853515625 30.60697364807129 73.32017517089844 30.61562728881836 73.80294036865234 L 30.61562728881836 74.93740081787109 C 30.61562728881836 76.02782440185547 30.83016586303711 77.08567047119141 31.25331878662109 78.08152008056641 C 31.66201210021973 79.04340362548828 32.24712753295898 79.90732574462891 32.99239730834961 80.649169921875 C 33.73770523071289 81.39109802246094 34.60558700561523 81.97355651855469 35.57181930541992 82.38040161132812 C 36.57220458984375 82.80167388916016 37.63493347167969 83.01525115966797 38.73051071166992 83.01525115966797 L 100.3309707641602 83.01525115966797 C 101.3266677856445 83.01525115966797 102.292854309082 82.82109832763672 103.202392578125 82.43813323974609 C 104.0809707641602 82.06821441650391 104.8699340820312 81.53867340087891 105.5473937988281 80.86432647705078 C 106.2248229980469 80.18990325927734 106.756706237793 79.40451812744141 107.1283187866211 78.53002166748047 C 107.5129699707031 77.62467193603516 107.7080535888672 76.66297912597656 107.7080535888672 75.67159271240234 L 107.7080535888672 74.93767547607422 L 107.7080535888672 73.83563232421875 C 107.7080535888672 72.82447814941406 108.5345916748047 72.00102233886719 109.5505905151367 72.00001525878906 L 123.5692443847656 72.00001525878906 C 125.5610122680664 72.00001525878906 127.493278503418 72.38832855224609 129.3124389648438 73.1541748046875 C 131.0693969726562 73.89386749267578 132.6472778320312 74.95286560058594 134.0022430419922 76.30171203613281 C 135.3572387695312 77.65059661865234 136.4211730957031 79.22129058837891 137.1641235351562 80.9700927734375 C 137.9335479736328 82.78070831298828 138.3236236572266 84.70409393310547 138.3236236572266 86.68686676025391 L 138.3236236572266 355.4525451660156 C 138.3236236572266 357.4352416992188 137.9335479736328 359.3585205078125 137.1641235351562 361.1692199707031 C 136.4211273193359 362.9181213378906 135.3571624755859 364.4886779785156 134.0022430419922 365.8374938964844 C 132.6473541259766 367.1862487792969 131.0694732666016 368.2452392578125 129.3124389648438 368.98486328125 C 127.4933166503906 369.7507019042969 125.5610504150391 370.1390686035156 123.5692443847656 370.1390686035156 Z"
            stroke="none" fill="#1c1c1c" />
    </g>
    <path id="Path_5082" data-name="Path 5082"
        d="M4246.431,382.586s.5-6.227-7.6-12.7c.125.249,7.846-16.19-6.1-22.666-4.483-1.744-24.659-2.864-18.93,21.421-.249,0-13.949,12.828-4.359,26.776.125.125-16.937,17.934-5.106,35.12"
        transform="translate(-3929 -138)" fill="#fb5954" />
    <line id="Line_14" data-name="Line 14" y2="51" transform="translate(292.5 219.5)" fill="none" stroke="#1c1c1c"
        stroke-linecap="round" stroke-width="2" />
    <path id="Path_5069" data-name="Path 5069" d="M4214.3,384.081l11.966,11.966" transform="translate(-3934 -140)"
        fill="none" stroke="#1c1c1c" stroke-linecap="round" stroke-width="2" />
    <path id="Path_5070" data-name="Path 5070" d="M4236.094,377.854l-9.344,9.572" transform="translate(-3934 -140)"
        fill="none" stroke="#1c1c1c" stroke-linecap="round" stroke-width="2" />
    <path id="Path_5083" data-name="Path 5083"
        d="M3951.667,365.689s2.154-9.113,8.782-13.421c.166-.166-10.77-22.037,10.107-29,1.541-.293,18.889-4.308,23.529,13.09,1.326,7.622-2.32,15.907-2.32,15.907s15.409,12.1,6.131,33.636c.331.331,20.215,18.558,5.634,45.235"
        transform="translate(-3938 -139)" fill="#fb5954" />
    <line id="Line_15" data-name="Line 15" y2="64" transform="translate(45.5 202.5)" fill="none" stroke="#1c1c1c"
        stroke-linecap="round" stroke-width="2" />
    <line id="Line_16" data-name="Line 16" y1="10" x2="10" transform="translate(49.5 259.5)" fill="none"
        stroke="#1c1c1c" stroke-linecap="round" stroke-width="2" />
    <line id="Line_17" data-name="Line 17" y1="12" x2="12" transform="translate(45.5 223.5)" fill="none"
        stroke="#1c1c1c" stroke-linecap="round" stroke-width="2" />
    <line id="Line_18" data-name="Line 18" x1="15" y1="15" transform="translate(30.5 232.5)" fill="none"
        stroke="#1c1c1c" stroke-linecap="round" stroke-width="2" />
    <g id="camera" transform="translate(112.663 1073.192)">
        <path
            d="M 72.20703125 -962.356201171875 C 71.34043884277344 -962.356201171875 70.63541412353516 -963.0614013671875 70.63541412353516 -963.9281616210938 C 70.63541412353516 -964.7947387695312 71.34043884277344 -965.499755859375 72.20703125 -965.499755859375 C 73.07379913330078 -965.499755859375 73.77896118164062 -964.7947387695312 73.77896118164062 -963.9281616210938 C 73.77896118164062 -963.0614013671875 73.07379913330078 -962.356201171875 72.20703125 -962.356201171875 Z M 64.26519012451172 -963.3920288085938 L 48.03593063354492 -963.3920288085938 C 47.74031066894531 -963.3920288085938 47.49980163574219 -963.632568359375 47.49980163574219 -963.9281616210938 C 47.49980163574219 -964.2235717773438 47.74031066894531 -964.4639282226562 48.03593063354492 -964.4639282226562 L 64.26519012451172 -964.4639282226562 C 64.56063842773438 -964.4639282226562 64.80100250244141 -964.2235717773438 64.80100250244141 -963.9281616210938 C 64.80100250244141 -963.632568359375 64.56063842773438 -963.3920288085938 64.26519012451172 -963.3920288085938 Z"
            stroke="none" />
        <path
            d="M 72.20703125 -964.999755859375 C 71.61613464355469 -964.999755859375 71.13540649414062 -964.51904296875 71.13540649414062 -963.9281616210938 C 71.13540649414062 -963.3370971679688 71.61613464355469 -962.856201171875 72.20703125 -962.856201171875 C 72.798095703125 -962.856201171875 73.27896118164062 -963.3370971679688 73.27896118164062 -963.9281616210938 C 73.27896118164062 -964.51904296875 72.798095703125 -964.999755859375 72.20703125 -964.999755859375 M 48.03591918945312 -963.9639282226562 C 48.01599884033203 -963.9639282226562 47.99980163574219 -963.9478759765625 47.99980163574219 -963.9281616210938 C 47.99980163574219 -963.9082641601562 48.01599884033203 -963.8920288085938 48.03591918945312 -963.8920288085938 L 64.26519012451172 -963.8920288085938 C 64.28494262695312 -963.8920288085938 64.30100250244141 -963.9082641601562 64.30100250244141 -963.9281616210938 C 64.30100250244141 -963.9478759765625 64.28494262695312 -963.9639282226562 64.26519012451172 -963.9639282226562 L 48.03591918945312 -963.9639282226562 M 72.20703125 -965.999755859375 C 73.35130310058594 -965.999755859375 74.27896118164062 -965.0723876953125 74.27896118164062 -963.9281616210938 C 74.27896118164062 -962.7838134765625 73.35130310058594 -961.856201171875 72.20703125 -961.856201171875 C 71.06275939941406 -961.856201171875 70.13540649414062 -962.7838134765625 70.13540649414062 -963.9281616210938 C 70.13540649414062 -965.0723876953125 71.06275939941406 -965.999755859375 72.20703125 -965.999755859375 Z M 48.03591918945312 -964.9639282226562 L 64.26519012451172 -964.9639282226562 C 64.83732604980469 -964.9639282226562 65.30100250244141 -964.500244140625 65.30100250244141 -963.9281616210938 C 65.30100250244141 -963.35595703125 64.83732604980469 -962.8920288085938 64.26519012451172 -962.8920288085938 L 48.03591918945312 -962.8920288085938 C 47.46379089355469 -962.8920288085938 46.99980163574219 -963.35595703125 46.99980163574219 -963.9281616210938 C 46.99980163574219 -964.500244140625 47.46379089355469 -964.9639282226562 48.03591918945312 -964.9639282226562 Z"
            stroke="none" />
    </g>
    <rect id="Rectangle_248" data-name="Rectangle 248" width="202" height="87" transform="translate(76 330)"
        fill="#fff" />
    <path id="Path_5072" data-name="Path 5072"
        d="M3030,493.466s16.018,7.994,19.788,10.332,2.262,14.782,2.262,14.782h-28.433Z"
        transform="translate(-2940 -185)" fill="#fff" />
    <path id="Path_5073" data-name="Path 5073"
        d="M3045.967,493.466s-16.018,7.994-19.788,10.332-2.262,14.782-2.262,14.782h28.433Z"
        transform="translate(-2796 -184)" fill="#fff" />
    <g id="Rectangle_249" data-name="Rectangle 249" transform="translate(112 138)" fill="none" stroke="#1c1c1c"
        stroke-width="2">
        <rect width="113" height="138" rx="14" stroke="none" />
        <rect x="1" y="1" width="111" height="136" rx="13" fill="none" />
    </g>
    <g id="news" transform="translate(143.635 174.152)">
        <g id="Group_2089" data-name="Group 2089" transform="translate(0 5.301)">
            <path id="Path_5074" data-name="Path 5074"
                d="M53.277,9.682A1.421,1.421,0,0,0,51.86,11.1V48.707a7.209,7.209,0,0,1-7.2,7.2H10.037a7.209,7.209,0,0,1-7.2-7.2V8.135H44.315V44.621a1.417,1.417,0,1,0,2.834,0V6.718A1.421,1.421,0,0,0,45.732,5.3H1.417A1.421,1.421,0,0,0,0,6.718V48.695A10.043,10.043,0,0,0,10.037,58.732H44.646A10.043,10.043,0,0,0,54.682,48.695V11.1A1.4,1.4,0,0,0,53.277,9.682Z"
                transform="translate(0 -5.301)" fill="#1c1c1c" stroke="#fff" stroke-width="0.5" />
            <path id="Path_5075" data-name="Path 5075"
                d="M88.006,77.335a1.417,1.417,0,0,0,0-2.834H57.117a1.417,1.417,0,1,0,0,2.834Z"
                transform="translate(-49.123 -66.33)" fill="#1c1c1c" stroke="#fff" stroke-width="0.5" />
            <path id="Path_5076" data-name="Path 5076"
                d="M88.006,319.1H57.117a1.417,1.417,0,1,0,0,2.834H87.995a1.417,1.417,0,0,0,.012-2.834Z"
                transform="translate(-49.123 -282.048)" fill="#1c1c1c" stroke="#fff" stroke-width="0.5" />
            <path id="Path_5077" data-name="Path 5077"
                d="M124.606,380.6H98.617a1.417,1.417,0,1,0,0,2.834h25.989a1.417,1.417,0,1,0,0-2.834Z"
                transform="translate(-85.723 -336.286)" fill="#1c1c1c" stroke="#fff" stroke-width="0.5" />
            <path id="Path_5078" data-name="Path 5078"
                d="M51.7,129.818v15.327a1.421,1.421,0,0,0,1.417,1.417H68.5a1.421,1.421,0,0,0,1.417-1.417V129.818A1.421,1.421,0,0,0,68.5,128.4H53.117A1.421,1.421,0,0,0,51.7,129.818Zm2.834,1.417H67.086v12.493H54.534Z"
                transform="translate(-45.595 -113.866)" fill="#1c1c1c" stroke="#fff" stroke-width="0.5" />
            <path id="Path_5079" data-name="Path 5079"
                d="M249.007,140.4h-10.19a1.417,1.417,0,1,0,0,2.834h10.19a1.417,1.417,0,1,0,0-2.834Z"
                transform="translate(-209.368 -124.449)" fill="#1c1c1c" stroke="#fff" stroke-width="0.5" />
            <path id="Path_5080" data-name="Path 5080"
                d="M249.007,194.6h-10.19a1.417,1.417,0,1,0,0,2.834h10.19a1.417,1.417,0,1,0,0-2.834Z"
                transform="translate(-209.368 -172.249)" fill="#1c1c1c" stroke="#fff" stroke-width="0.5" />
            <path id="Path_5081" data-name="Path 5081"
                d="M250.424,253.618a1.421,1.421,0,0,0-1.417-1.417h-10.19a1.417,1.417,0,1,0,0,2.834h10.19A1.414,1.414,0,0,0,250.424,253.618Z"
                transform="translate(-209.368 -223.047)" fill="#1c1c1c" stroke="#fff" stroke-width="0.5" />
        </g>
    </g>
    <path id="Path_5068" data-name="Path 5068"
        d="M4246.431,382.586s.5-6.227-7.6-12.7c.125.249,7.846-16.19-6.1-22.666-4.483-1.744-24.659-2.864-18.93,21.421-.249,0-13.949,12.828-4.359,26.776.125.125-16.937,17.934-5.106,35.12"
        transform="translate(-3934 -140)" fill="none" stroke="#1c1c1c" stroke-linecap="round" stroke-linejoin="round"
        stroke-width="2" />
    <path id="Path_5071" data-name="Path 5071"
        d="M3951.667,365.689s2.154-9.113,8.782-13.421c.166-.166-10.77-22.037,10.107-29,1.541-.293,18.889-4.308,23.529,13.09,1.326,7.622-2.32,15.907-2.32,15.907s15.409,12.1,6.131,33.636c.331.331,20.215,18.558,5.634,45.235"
        transform="translate(-3931 -139)" fill="none" stroke="#1c1c1c" stroke-linecap="round" stroke-linejoin="round"
        stroke-width="2" />
    <path id="Path_5093" data-name="Path 5093"
        d="M4493.155,253.713l-1.354.382s-3.021,1.215-4.131-1.562-3.021-8.262-3.021-8.262-1.6-2.951,2.118-4.582,14.893-5.624,14.893-5.624a2.965,2.965,0,0,1,4.026,1.493c1.389,2.777,4.027,9.512,4.027,9.512s.9,2.187-1.806,3.333-9.373,3.471-9.373,3.471l-3.333,5.52s-.833,1.875-1.388-1.041S4493.155,253.713,4493.155,253.713Z"
        transform="translate(-2828.014 -3274.91) rotate(45)" fill="none" stroke="#1c1c1c" stroke-width="1.5" />
    <path id="Path_5098" data-name="Path 5098" d="M.274.509,11,.367V10L.274,9.914Z" transform="translate(152 196)"
        fill="#fb5954" />
</svg>