<svg xmlns="http://www.w3.org/2000/svg" width="24.671" height="24.671" viewBox="0 0 24.671 24.671">
    <path id="Path_5041" data-name="Path 5041"
        d="M23.226,17.443H18.841V13.058h1.446V8.722H18.8a6.541,6.541,0,0,0-5.743-5.79V1.446H15.95V0H11.613V2.932A6.541,6.541,0,0,0,5.87,8.722H4.385v4.337H5.831v4.385H1.446v2.891H0v4.337H24.671V20.335H23.226ZM12.336,4.337a5.083,5.083,0,0,1,5.009,4.385H7.327A5.083,5.083,0,0,1,12.336,4.337ZM5.831,10.167h13.01v1.446H5.831ZM17.4,13.058v4.385H15.95V13.058Zm-2.891,0v4.385H13.058V13.058Zm-2.891,0v4.385H10.167V13.058Zm-2.891,0v4.385H7.276V13.058Zm14.5,10.167H1.446V21.78H7.276V20.335H2.891V18.889H21.78v1.446H17.4V21.78h5.831Z"
        transform="translate(0 0)" fill="#1c1c1c" />
</svg>