<svg xmlns="http://www.w3.org/2000/svg" width="26.167" height="26.122" viewBox="0 0 26.167 26.122">
    <g id="Group_2078" data-name="Group 2078" transform="translate(501.675 714.16)">
        <path id="Path_5062" data-name="Path 5062"
            d="M-495.462-704.729c0-.586,0-1.142,0-1.7,0-.213,0-.426,0-.639a.678.678,0,0,1,.734-.728c.666-.008,1.332,0,2,0h.321c0-.515,0-1,0-1.485,0-.329-.009-.657,0-.986a.667.667,0,0,1,.67-.708.669.669,0,0,1,.645.73c.005.7,0,1.4,0,2.1,0,.1,0,.208,0,.323.081.007.132.016.183.016h1.55c.006-.118.014-.219.014-.321q0-2.024,0-4.048c0-.5-.167-.664-.676-.667s-1.048.006-1.571,0a1.17,1.17,0,0,1-.461-.093.606.606,0,0,1-.323-.692.65.65,0,0,1,.6-.518c.683-.01,1.369-.036,2.05.011a1.765,1.765,0,0,1,1.682,1.848c.009,1.349,0,2.7,0,4.048v.418h1.75c0-.129,0-.267,0-.406q0-1,0-2a.673.673,0,0,1,.644-.757.677.677,0,0,1,.67.762c0,.789,0,1.579,0,2.4h.3c.675,0,1.349,0,2.024,0a.677.677,0,0,1,.731.729c0,.762,0,1.524,0,2.305.094.009.17.022.246.022.719,0,1.438,0,2.157,0a1.328,1.328,0,0,1,.444.061.648.648,0,0,1,.4.709.673.673,0,0,1-.643.536c-.754.006-1.509,0-2.264,0h-.325v1.735c.086.005.163.015.24.015q2.091,0,4.181,0c.5,0,.671-.17.674-.672,0-.559,0-1.119,0-1.678a.655.655,0,0,1,.645-.7.64.64,0,0,1,.655.66c.008.683.023,1.368-.018,2.049a1.694,1.694,0,0,1-1.64,1.621c-1.268.038-2.538.017-3.808.021h-.936v1.744h.311c.728,0,1.456,0,2.184,0a.681.681,0,0,1,.746.66.681.681,0,0,1-.749.659c-.728,0-1.456,0-2.184,0h-.3v.307c0,.657,0,1.314,0,1.971a.685.685,0,0,1-.785.776h-2.253c-.006.1-.016.172-.016.248,0,.7,0,1.4,0,2.1a.674.674,0,0,1-.641.71.667.667,0,0,1-.668-.685c-.012-.692-.006-1.385-.007-2.077,0-.088,0-.175,0-.281H-488c-.007.094-.021.187-.021.28q0,1.971,0,3.942c0,.516.154.667.664.67.568,0,1.136,0,1.7.007a.646.646,0,0,1,.625.414.53.53,0,0,1-.11.639.945.945,0,0,1-.53.24c-.6.03-1.207.019-1.81.012a1.807,1.807,0,0,1-1.859-1.9c0-1.314,0-2.628,0-3.942,0-.114,0-.227,0-.357h-1.731c-.006.1-.016.2-.017.3,0,.7.005,1.4-.006,2.1a.658.658,0,0,1-.55.63.648.648,0,0,1-.687-.394,1.057,1.057,0,0,1-.061-.389c-.005-.639,0-1.278,0-1.917,0-.1,0-.209,0-.331-.106-.009-.183-.02-.26-.02-.684,0-1.367,0-2.051,0a.688.688,0,0,1-.756-.761c0-.753,0-1.506,0-2.293h-.783c-.515,0-1.03,0-1.545,0a.666.666,0,0,1-.721-.656.673.673,0,0,1,.721-.657c.666-.006,1.332,0,2,0h.307v-1.735h-.989q-1.611,0-3.222,0c-.515,0-.672.155-.675.663,0,.551,0,1.1,0,1.651a.676.676,0,0,1-.678.729.67.67,0,0,1-.624-.7c-.009-.6-.021-1.208,0-1.811a1.8,1.8,0,0,1,1.936-1.849c1.314,0,2.628,0,3.942,0h.314v-1.737h-.281l-1.971,0c-.471,0-.777-.258-.775-.651s.294-.65.775-.653c.648,0,1.3,0,1.944,0Zm1.337,9.132c.082.007.151.017.22.017q5.178,0,10.357,0c.27,0,.319-.09.318-.334q-.01-5.125-.005-10.25c0-.1-.011-.2-.017-.3h-10.873Z"
            transform="translate(0 0)" fill="#1c1c1c" />
        <path id="Path_5063" data-name="Path 5063"
            d="M-331.084-537.13q0-1.571,0-3.142a.684.684,0,0,1,.756-.756q3.155,0,6.31,0a.664.664,0,0,1,.735.72q0,3.181,0,6.363a.652.652,0,0,1-.713.711q-3.155.006-6.31,0a.685.685,0,0,1-.778-.786Q-331.083-535.573-331.084-537.13Zm1.313,2.587h5.168v-5.146h-5.168Z"
            transform="translate(-161.503 -163.91)" fill="#1c1c1c" />
    </g>
</svg>