<svg width="27" height="27" viewBox="0 0 27 27" fill="none" xmlns="http://www.w3.org/2000/svg">
    <path
        d="M23.362 0H3.638C2.67314 0 1.7478 0.383288 1.06555 1.06555C0.383288 1.7478 0 2.67314 0 3.638L0 23.362C0 23.8397 0.0940996 24.3128 0.276926 24.7542C0.459753 25.1956 0.727726 25.5966 1.06555 25.9345C1.40337 26.2723 1.80442 26.5402 2.2458 26.7231C2.68718 26.9059 3.16025 27 3.638 27H13.365L13.382 17.352H10.876C10.7196 17.352 10.5696 17.29 10.4588 17.1796C10.348 17.0692 10.2855 16.9194 10.285 16.763L10.273 13.653C10.2726 13.5751 10.2876 13.498 10.3171 13.4259C10.3466 13.3539 10.3901 13.2884 10.445 13.2332C10.5 13.178 10.5652 13.1342 10.6371 13.1043C10.709 13.0744 10.7861 13.059 10.864 13.059H13.364V10.054C13.364 6.567 15.494 4.668 18.605 4.668H21.158C21.3147 4.668 21.4651 4.73027 21.5759 4.8411C21.6867 4.95193 21.749 5.10226 21.749 5.259V7.881C21.749 8.03774 21.6867 8.18807 21.5759 8.2989C21.4651 8.40973 21.3147 8.472 21.158 8.472H19.593C17.901 8.472 17.574 9.272 17.574 10.456V13.056H21.292C21.3755 13.056 21.4581 13.0737 21.5343 13.1079C21.6105 13.1421 21.6786 13.1921 21.7341 13.2546C21.7895 13.317 21.8311 13.3905 21.8561 13.4702C21.8811 13.55 21.8889 13.6341 21.879 13.717L21.51 16.827C21.4931 16.9708 21.424 17.1034 21.3158 17.1996C21.2076 17.2959 21.0678 17.349 20.923 17.349H17.59L17.574 27H23.362C23.8397 27 24.3128 26.9059 24.7542 26.7231C25.1956 26.5402 25.5966 26.2723 25.9345 25.9345C26.2723 25.5966 26.5402 25.1956 26.7231 24.7542C26.9059 24.3128 27 23.8397 27 23.362V3.638C27 3.16025 26.9059 2.68718 26.7231 2.2458C26.5402 1.80442 26.2723 1.40337 25.9345 1.06555C25.5966 0.727726 25.1956 0.459753 24.7542 0.276926C24.3128 0.0940996 23.8397 0 23.362 0V0Z"
        fill="#475993" />
</svg>